<?xml version="1.0" standalone="yes"?>
<svg xmlns="http://www.w3.org/2000/svg" width="500" height="500">
<path style="fill:#010101; stroke:none;" d="M0 0L0 500L500 500L500 0L0 0z"/>
<path style="fill:#ffffff; stroke:none;" d="M1 1L1 499L499 499L499 1L1 1z"/>
<path style="fill:#010101; stroke:none;" d="M314 9C305.458 23.4847 292.744 39.8717 288 56C260.894 40.164 230.131 17.4318 198 16.213C186.262 15.7677 167.916 26.737 158 32.6034C138.54 44.1167 119.39 56.1663 100 67.8002C82.9059 78.0564 67.002 85.9639 58.4167 105C54.4297 113.84 56.7273 125.574 55.8302 135C53.4538 159.971 52 185.909 52 211L155 211L157 98C183.721 110.476 207.908 134.11 236 143L208 192C238.347 183.325 267.88 166.644 297 154.424C305.045 151.049 325.062 146.699 329.958 139.362C333.809 133.589 327.971 114.811 327.155 108C324.56 86.3225 321.75 64.677 319.155 43C317.913 32.6239 318.535 18.4372 314 9z"/>
<path style="fill:#2777bb; stroke:none;" d="M313 12L288 57C260.894 41.164 230.131 18.4318 198 17.213C186.608 16.7808 168.673 27.3524 159 33.0116C139.155 44.6224 119.718 56.9698 100 68.8002C83.349 78.7906 67.7797 86.4567 59.4167 105C55.4297 113.84 57.7273 125.574 56.8302 135C54.4861 159.633 53.0027 185.25 53 210L154 210L156 96C181.931 111.871 209.092 130.974 237 143L210 190C239.281 181.992 268.063 165.751 296 153.85C304.735 150.129 322.128 146.566 328.382 139.351C332.724 134.341 327.106 115.329 326.282 109C323.376 86.6976 320.559 64.3496 318.05 42C317.096 33.4983 317.837 19.0792 313 12z"/>
<path style="fill:#ffffff; stroke:none;" d="M150 38L151 39L150 38z"/>
<path style="fill:#010101; stroke:none;" d="M392 99C374.696 127.269 353.106 156.584 340 187L400 224.692L437 247L437 248L404 265.14L355 292C350.23 275.443 338.683 257.877 330 243L329 243C325.076 274.027 320.369 305.092 315.576 336C314.141 345.251 307.344 364.865 310.693 373.61C313.291 380.395 333.628 385.324 340 388.231C369.211 401.557 400.177 419.124 431 428L405 380C414.488 376.997 423.484 370.11 432 365C450.607 353.836 477.069 343.785 485.656 322C495.882 296.055 491 261.283 491 234C491 207.853 495.09 181.958 480.648 159.04C474.828 149.805 460.108 143.278 451 137.576C431.426 125.319 412.871 108.873 392 99z"/>
<path style="fill:#2777bb; stroke:none;" d="M392 100L341 187L438 247L438 248C409.63 259.812 381.549 277.504 355 293C348.776 278.05 340.318 258.453 330 246C321.033 275.511 320.921 309.524 315.92 340C314.696 347.455 308.44 366.94 312.117 373.61C315.904 380.478 334.945 385.021 342 388.14C370.199 400.607 399.371 417.53 429 426L404 380C415.527 375.033 426.186 367.363 437 361.011C454.387 350.798 472.181 342.737 483.136 325C489.931 313.998 490 292.67 490 280L490 214C490 193.41 491.33 177.043 479.648 159.093C473.939 150.321 459.746 144.052 451 138.576C431.426 126.319 412.871 109.873 392 100M167 103L168 104L167 103M56 117L57 118L56 117M213 130L214 131L213 130M218 133L219 134L218 133M55 137L56 138L55 137M232 149L233 150L232 149M54 157L55 158L54 157M225 161L226 162L225 161M222 166L223 167L222 166z"/>
<path style="fill:#ffffff; stroke:none;" d="M484 168L485 169L484 168z"/>
<path style="fill:#2777bb; stroke:none;" d="M219 171L220 172L219 171M218 173L219 174L218 173M215 178L216 179L215 178M212 183L213 184L212 183M211 185L212 186L211 185M355 196L356 197L355 196M358 198L359 199L358 198M361 200L362 201L361 200M363 201L364 202L363 201M366 203L367 204L366 203M369 205L370 206L369 205M371 206L372 207L371 206M374 208L375 209L374 208M382 213L383 214L382 213M390 218L391 219L390 218M398 223L399 224L398 223M401 225L402 226L401 225M409 230L410 231L409 230M412 232L413 233L412 232M415 234L416 235L415 234z"/>
<path style="fill:#010101; stroke:none;" d="M107 235L38 288.116L3 316L57 315C57 345.782 53.3277 383.068 67.3241 410.985C73.0881 422.482 91.9253 432.897 103 438.78C124.471 450.187 145.528 462.374 167 473.78C183.223 482.398 196.837 490.775 216 488.895C226.01 487.913 236.169 479.666 245 475.247C266.752 464.363 289 453.257 310 441C297.131 410.254 275.941 380.726 259 352L159 406L159 315L214 316L175 285.627L107 235z"/>
<path style="fill:#2777bb; stroke:none;" d="M417 235L418 236L417 235M107 236C74.0889 262.118 40.6459 291.802 5 314L5 315L58 314C58 344.87 54.0267 383.043 68.3241 410.961C74.2287 422.49 92.9378 432.312 104 438.309C125.042 449.716 145.861 461.552 167 472.78C183.223 481.398 196.837 489.775 216 487.895C225.415 486.971 234.725 479.414 243 475.248C265.043 464.148 286.194 450.495 309 441L259 353C224.491 367.371 190.298 389.149 158 408L158 314L212 315L212 314L107 236M420 237L421 238L420 237M423 239L424 240L423 239M425 240L426 241L425 240M426 241L427 242L426 241M428 242L429 243L428 242M433 245L434 246L433 245z"/>
<path style="fill:#ffffff; stroke:none;" d="M158 274L159 275L158 274M159 275L160 276L159 275M163 278L164 279L163 278M167 281L168 282L167 281M265 365L266 366L265 365M266 367L267 368L266 367M269 372L270 373L269 372M270 374L271 375L270 374M273 379L274 380L273 379M274 381L275 382L274 381M276 384L277 385L276 384M277 386L278 387L277 386M278 388L279 389L278 388M280 391L281 392L280 391M281 393L282 394L281 393M282 395L283 396L282 395M283 396L284 397L283 396M284 398L285 399L284 398M285 400L286 401L285 400M286 402L287 403L286 402M287 403L288 404L287 403M288 405L289 406L288 405M289 407L290 408L289 407z"/>
<path style="fill:#2777bb; stroke:none;" d="M388 409L389 410L388 409z"/>
<path style="fill:#ffffff; stroke:none;" d="M291 410L292 411L291 410M292 412L293 413L292 412z"/>
<path style="fill:#2777bb; stroke:none;" d="M397 413L398 414L397 413z"/>
<path style="fill:#ffffff; stroke:none;" d="M294 415L295 416L294 415M295 417L296 418L295 417z"/>
<path style="fill:#2777bb; stroke:none;" d="M406 417L407 418L406 417z"/>
<path style="fill:#ffffff; stroke:none;" d="M298 422L299 423L298 422M299 424L300 425L299 424M302 429L303 430L302 429M305 434L306 435L305 434M289 450L290 451L289 450M287 451L288 452L287 451M285 452L286 453L285 452M283 453L284 454L283 453z"/>
</svg>
