<?xml version="1.0" standalone="yes"?>
<svg xmlns="http://www.w3.org/2000/svg" width="500" height="500">
<path style="fill:#010101; stroke:none;" d="M0 0L0 500L500 500L500 0L0 0z"/>
<path style="fill:#9bc3e7; stroke:none;" d="M273 206L272 207C272.745 210.725 266.535 224.86 265 231C263.308 237.767 265.709 245.163 264 252C260.177 267.293 261.3 293.199 265 308C266.852 315.407 266.541 324.868 271 331C273.815 334.87 284.754 333.585 289 335C297.472 337.824 305.129 342.782 314 345C321 346.75 330.75 345 338 345C343.371 345 351.949 346.684 357 345C372.588 339.804 386.182 327.75 399 316C403.868 311.538 411.884 306.233 415 300C416.785 296.429 414.802 287.209 414 284C411.536 274.145 411.812 262.739 411 253C410.643 248.713 416.707 241.096 415 237C413.016 232.239 405.342 228.011 402 224C392.046 212.055 374.295 197.765 360 193C355.196 191.399 348.929 194.232 344 193C331.712 189.928 312.408 191.197 301 195C293.478 197.507 278.357 207.339 273 206M36 205C23.8448 210.19 15.4959 231.585 21.1397 244C25.2682 253.082 36.1167 259.18 35.8711 270C35.5868 282.526 27.5215 285.239 22.3279 295.004C15.4287 307.975 21.8286 328.547 33.0394 337.072C46.779 347.519 67.8608 344 84 344L152 344C163.188 344 176.023 345.732 187 343.485C196.245 341.593 203.516 336.656 212 333C210.799 324.866 207.401 317.255 206.289 309C201.867 276.175 200.254 235.077 213 204C192.969 192.309 176.082 193.893 154 193.999C128.976 194.12 104.017 194.402 79 195.015C68.2153 195.279 55.05 194.545 45 198.611C41.3358 200.094 36.8428 200.892 36 205M39 200L40 201L39 200z"/>
<path style="fill:#ffffff; stroke:none;" d="M287 201L288 202L287 201z"/>
<path style="fill:#010101; stroke:none;" d="M37 202L36 204L37 202z"/>
<path style="fill:#ffffff; stroke:none;" d="M213 204L212 206L213 204M378 204L379 205L378 204z"/>
<path style="fill:#010101; stroke:none;" d="M213 205C205.237 217.356 205.165 235.811 204.996 250C204.672 277.215 202.26 304.871 212 331L213 331C207.659 311.022 205 291.739 205 271L206 271C206.723 305.823 259.427 307.339 261 273L262 273C262 292.766 261.526 314.02 271 332L272 332C258.306 296.5 256.76 242.949 273 208L272 208C261.943 223.393 262 247.143 262 265L261 265C259.509 230.799 207.745 230.002 206 264L205 264L208.424 224L213 205z"/>
<path style="fill:#5d99cd; stroke:none;" d="M205 263L206 263C211.583 230.576 259.448 231.115 261 265L262 265C262 244.094 264.127 223.55 274 205L230 205L213.558 206.603L208.803 221L205 263z"/>
<path style="fill:#9bc3e7; stroke:none;" d="M31 206L32 207L31 206z"/>
<path style="fill:#ffffff; stroke:none;" d="M211 207L212 208L211 207z"/>
<path style="fill:#010101; stroke:none;" d="M273 207L274 208L273 207z"/>
<path style="fill:#9bc3e7; stroke:none;" d="M25 213L26 214L25 213M23 216L24 217L23 216z"/>
<path style="fill:#5d99cd; stroke:none;" d="M208 217L209 218L208 217z"/>
<path style="fill:#ffffff; stroke:none;" d="M207 222L208 223L207 222M401 223L402 224L401 223M402 224L403 225L402 224M403 225L404 226L403 225M206 226L206 229L207 229L206 226M404 226L405 227L404 226M405 227L406 228L405 227M406 228L407 229L406 228M407 229L408 230L407 229M408 230C414.589 239.217 427.759 236 438 236C431.612 230.438 416.078 227.613 408 230z"/>
<path style="fill:#010101; stroke:none;" d="M409 230L415 236L409 230z"/>
<path style="fill:#f9c1c3; stroke:none;" d="M436 243C437.812 252.285 436.212 268.707 434 278L441.167 304.5L467 304C472.282 288.155 469 268.866 469 252C469 247.642 469.122 235.249 465 233C462.359 231.56 443.714 230.372 441 232C436.706 234.576 440.239 244.06 436 243z"/>
<path style="fill:#ffffff; stroke:none;" d="M205 234L206 235L205 234z"/>
<path style="fill:#010101; stroke:none;" d="M464 234C459.251 253.948 459.239 283.059 464 303L465 303L463.004 253L464 234z"/>
<path style="fill:#ffffff; stroke:none;" d="M415 299L438 299C433.557 277.461 433.564 258.505 438 237C432.646 237 420.062 234.657 415.728 238.028C410.631 241.991 411.505 253.58 412.381 259C414.379 271.361 415 286.291 415 299M229 238L230 239L229 238M238.667 238.333L239.333 238.667L238.667 238.333M224 239L225 240L224 239M230 239.44C195.584 244.928 200.961 303.032 236 297.559C271.825 291.964 266.182 233.67 230 239.44z"/>
<path style="fill:#010101; stroke:none;" d="M437 239L437 244L438 244L437 239z"/>
<path style="fill:#ffffff; stroke:none;" d="M222 240L223 241L222 240M219 242L220 243L219 242z"/>
<path style="fill:#010101; stroke:none;" d="M436 244L436 249L437 249L436 244z"/>
<path style="fill:#ffffff; stroke:none;" d="M468 245L469 246L468 245M253 246L254 247L253 246M254 247L255 248L254 247M255 249L256 250L255 249z"/>
<path style="fill:#010101; stroke:none;" d="M435 249L435 255L436 255L435 249M434 255L434 277L435 277L434 255z"/>
<path style="fill:#ffffff; stroke:none;" d="M260 259L261 260L260 259M205 263L206 264L205 263M205 271L205 275L206 275L205 271z"/>
<path style="fill:#5d99cd; stroke:none;" d="M261 273C258.118 305.798 211.565 307.216 206 275L205 275L209.127 318L214.394 330.972L232 332L272 333C265.241 319.775 263.554 306.542 262.17 292C261.591 285.921 263.38 278.673 261 273z"/>
<path style="fill:#ffffff; stroke:none;" d="M206.333 277.667L206.667 278.333L206.333 277.667z"/>
<path style="fill:#010101; stroke:none;" d="M435 277L435 286L436 286L435 277z"/>
<path style="fill:#ffffff; stroke:none;" d="M208 283L209 284L208 283M210 286L211 287L210 286z"/>
<path style="fill:#010101; stroke:none;" d="M436 286L436 293L437 293L436 286z"/>
<path style="fill:#ffffff; stroke:none;" d="M211.333 287.667L211.667 288.333L211.333 287.667M255 287L256 288L255 287M469 287L470 288L469 287M212 289L213 290L212 289M213 290L214 291L213 290M214 291L215 292L214 291M215 292L216 293L215 292M250 292L251 293L250 292M249 293L250 294L249 293z"/>
<path style="fill:#010101; stroke:none;" d="M437 293L437 297L438 297L437 293z"/>
<path style="fill:#ffffff; stroke:none;" d="M247.667 294.333L248.333 294.667L247.667 294.333M241 297L241 298L247 296L241 297M468 295L469 296L468 295M223 297L224 298L223 297M225 298L225 299L229 299L225 298M236 298L236 299L241 299L236 298M230 299L230 300L235 300L230 299z"/>
<path style="fill:#010101; stroke:none;" d="M414 300L412 303L414 300z"/>
<path style="fill:#ffffff; stroke:none;" d="M412 304L437 301C430.488 298.267 416.646 298.422 412 304M205 301L206 302L205 301M467 302L468 303L467 302z"/>
<path style="fill:#f9c1c3; stroke:none;" d="M453 305L453 306L456 306L453 305z"/>
<path style="fill:#ffffff; stroke:none;" d="M456 305L457 306L456 305z"/>
<path style="fill:#9bc3e7; stroke:none;" d="M19 313L20 314L19 313z"/>
<path style="fill:#ffffff; stroke:none;" d="M400 314L401 315L400 314z"/>
<path style="fill:#5d99cd; stroke:none;" d="M207 315L208 316L207 315z"/>
<path style="fill:#ffffff; stroke:none;" d="M399 315L400 316L399 315z"/>
<path style="fill:#5d99cd; stroke:none;" d="M208 319L208 322L209 322L208 319M209 323L210 324L209 323z"/>
<path style="fill:#ffffff; stroke:none;" d="M386 326L387 327L386 326z"/>
<path style="fill:#9bc3e7; stroke:none;" d="M24 328L25 329L24 328z"/>
<path style="fill:#ffffff; stroke:none;" d="M383 328L384 329L383 328z"/>
<path style="fill:#5d99cd; stroke:none;" d="M211 329L212 330L211 329z"/>
<path style="fill:#ffffff; stroke:none;" d="M382 329L383 330L382 329M381 330L382 331L381 330z"/>
<path style="fill:#5d99cd; stroke:none;" d="M212 331L213 332L212 331z"/>
<path style="fill:#ffffff; stroke:none;" d="M364 341L365 342L364 341z"/>
</svg>
