<?xml version="1.0" standalone="yes"?>
<svg xmlns="http://www.w3.org/2000/svg" width="500" height="500">
<path style="fill:#010101; stroke:none;" d="M0 0L0 500L500 500L500 0L0 0z"/>
<path style="fill:#755303; stroke:none;" d="M313 12L288 57C276.388 49.2587 262.978 43.9872 251 37C239.899 30.5245 229.512 23.1279 217 20C211.63 18.6574 199.67 15.1101 194 17C162.163 27.6123 133.143 49.0002 104 66C88.5395 75.0186 72.8631 82.8062 64 98C61.6581 102.015 55.733 116.933 56 117C57.4305 121.291 58.3266 137.832 55 137C56.4305 141.291 57.3266 157.832 54 157L53 210L154 210L156 96L167 104L179 110L204 124L213 131C215.51 130.498 218.645 131.421 218 134L237 143L232 149C232.542 151.712 227.538 161.635 225 161C225.502 163.51 224.579 166.645 222 166C222.502 168.51 221.579 171.645 219 171L220 174L218 173C218.502 175.51 217.579 178.645 215 178C215.502 180.51 214.579 183.645 212 183L213 186L211 185L210 190C239.281 181.992 268.063 165.751 296 153.85C304.735 150.129 322.128 146.566 328.382 139.351C332.724 134.341 327.106 115.329 326.282 109C323.376 86.6976 320.559 64.3496 318.05 42C317.096 33.4983 317.837 19.0792 313 12M392 100L341 187L355 197C357.649 196.47 358.607 196.572 358 199C360.649 198.47 361.607 198.572 361 201L364 200L363 202C365.649 201.47 366.607 201.572 366 204C368.649 203.47 369.607 203.572 369 206L372 205L371 207C373.649 206.47 374.607 206.572 374 209C376.557 208.489 382.613 211.548 382 214C384.557 213.489 390.613 216.548 390 219C392.557 218.489 398.613 221.548 398 224C400.649 223.47 401.607 223.572 401 226C403.557 225.489 409.613 228.548 409 231C411.649 230.47 412.607 230.572 412 233C414.649 232.47 415.607 232.572 415 235L418 234L417 236C419.649 235.47 420.607 235.572 420 238C422.649 237.47 423.607 237.572 423 240L426 239L426 242L429 241L428 243C430.51 242.498 433.645 243.421 433 246L438 247L438 248C409.63 259.812 381.549 277.504 355 293C348.776 278.05 340.318 258.453 330 246L326 274L316 342L313 363L311 374L329 382L370 401L388 410C391.246 409.459 397.623 411.51 397 414C400.246 413.459 406.623 415.51 406 418L429 426L404 380C415.527 375.033 426.186 367.363 437 361.011C454.387 350.798 472.181 342.737 483.136 325C489.931 313.998 490 292.67 490 280L490 214C490 193.41 491.33 177.043 479.648 159.093C473.939 150.321 459.746 144.052 451 138.576C431.426 126.319 412.871 109.873 392 100M107 236C74.0889 262.118 40.6459 291.802 5 314L5 315L58 314C58 344.87 54.0267 383.043 68.3241 410.961C74.2287 422.49 92.9378 432.312 104 438.309C125.042 449.716 145.861 461.552 167 472.78C183.223 481.398 196.837 489.775 216 487.895C225.415 486.971 234.725 479.414 243 475.248C265.043 464.148 286.194 450.495 309 441L259 353C224.491 367.371 190.298 389.149 158 408L158 314L212 315L212 314L107 236z"/>
<path style="fill:#010101; stroke:none;" d="M426 240L427 241L426 240z"/>
<path style="fill:#ffffff; stroke:none;" d="M277 386L278 387L277 386M278 388L279 389L278 388M286 402L287 403L286 402M292 412L293 413L292 412M287 451L288 452L287 451M283 453L284 454L283 453z"/>
</svg>
