<?xml version="1.0" standalone="yes"?>
<svg xmlns="http://www.w3.org/2000/svg" width="500" height="500">
<path style="fill:#010101; stroke:none;" d="M0 0L0 500L500 500L500 0L0 0z"/>
<path style="fill:#cab276; stroke:none;" d="M246 2C240.475 6.82672 231.629 12.295 228.434 19.0146C223.34 29.7243 226.945 43.76 226.999 55C227.165 89.4061 234.996 123.611 235 158L234 158L234 151C230.842 151.652 225.146 152.004 223.028 154.728C219.492 159.273 221.454 175.769 223 181L191 187L181 184C177.927 185.024 175.236 186.055 176 183C172.927 184.024 170.236 185.055 171 182C167.927 183.024 165.236 184.055 166 181C162.927 182.024 160.236 183.055 161 180L154 181L154 180L156 180L156 179C152.709 179.549 149.14 181.438 150 178L142 178L142 184L141 184C140.933 159.825 137.026 130.598 131.518 107.039C130.179 101.312 117.688 90.1064 112 93C109.161 90.9756 105.332 95.2665 103.019 97.1998C95.2207 103.719 99.7664 115.993 101 125C105.679 159.165 112.848 194.403 114.583 228.83C114.806 233.257 110.584 235.899 109.552 240C107.706 247.338 111.274 257.311 114 264L115 264L115 261L116 261C116 274.67 128.018 277.841 138 282C141.838 283.599 150.76 282.96 150 286L177 288.92L241 300L241 301C238.182 303.678 240.078 309.379 240.576 313C241.998 323.321 243.155 333.68 244.576 344C249.757 381.615 254.63 419.307 259.155 457C260.715 469.993 258.929 492.22 277 490L277 485L278 485L278 490C285.848 488.913 289.964 483.453 294 477L286 477L286 476C329.058 476 374.73 464.964 417 457L417 452L418 452C418.327 462.084 430.355 472.756 440 466C440.685 469.426 450.225 462.959 452 460C453.583 457.361 450.241 448.894 450 446C448.737 430.84 447.698 413.791 444 399C436.956 370.825 438.039 340.156 431 312C429.275 305.101 430.733 297.93 429 291C424.443 272.774 420.109 244.565 425 225C429.164 208.345 421.9 188.398 426 172C427.531 165.875 426 157.344 426 151C426 137.527 427 123.912 427 111C427 107.146 429.187 93.9165 427 91C424.329 87.438 415.027 86.8913 416 83L412 83L412 92L411 92L411 83C406.021 84.8844 398.123 88.5704 395.317 93.3256C392.707 97.7492 392.591 104.983 391.753 110C389.282 124.801 386.7 146.454 391 161C382.564 159.224 373.801 153.851 366 150.167C345.111 140.302 323.507 130.364 302 122C297.195 120.131 273.552 107.446 273 112L272 112L268.17 40L265.972 16.2894L248 2L248 10L247 10L246 2z"/>
<path style="fill:#010101; stroke:none;" d="M248 10C248 46.8407 250.573 84.254 253.09 121C253.887 132.652 254.865 144.308 255.004 156C255.049 159.813 256.954 165.186 255.393 168.772C253.234 173.728 241.66 173.794 237 175L236 158L235 158C235 170.379 236.699 175.831 223 179L223 180C234.873 178.246 246.725 171.583 259 172.209C277.106 173.132 293.216 180.299 310 186.576C329.295 193.791 348.653 200.871 368 207.947C378.205 211.679 400.224 215.252 407.397 223.499C411.884 228.659 409 244.404 409 251C384.759 238.224 356.52 230.823 331 220.797C310.156 212.608 287.719 200.768 265 200.043C236.712 199.141 210.032 210.011 184 219.308C156.836 229.009 133.383 236.323 116 261C125.187 254.529 130.695 243.971 140 237.699C150.112 230.883 164.615 227.87 176 223.576C208.278 211.404 243.792 196.252 279 202.934C291.14 205.239 303.529 211.44 315 216C344.879 227.877 376.691 243.753 408 251L408 252C394.154 253.866 380.317 259.837 367 263.975C326.738 276.484 283.271 295.547 241 299L241 300L254 298L271.17 441L276 485L277 485L272.17 440L255 297L276 293L283 393C323.374 381.654 367.075 386.062 407 371C407.055 377.681 412.455 392.921 408.933 398.567C405.37 404.279 385.344 404.731 379 406C348.041 412.191 316.658 419.347 285 420L287 448L326 443.385L352 436.174L373 435.561L415 427L403.282 340L392 257L409 252C412.948 302.018 419.883 352.176 425.845 402C428.268 422.248 426.386 448.767 438 466L439 466C426.21 438.957 427.026 403.81 423.834 374C419.515 333.654 414.014 293.393 410.17 253C409.319 244.064 410.745 234.974 409.941 226.043C409.374 219.735 406 215.094 406 208L405 208L405 220L386.028 209.787L385 185L407 194L407 193L383 183C386.261 196.696 377.732 205.846 363 204.287C352.795 203.207 343.001 196.37 333 194L333 193C344.776 191.413 365.47 187.1 375 180C352.336 167.918 326.794 159.297 303 149.603C296.135 146.806 279.988 143.298 276.027 136.775C272.225 130.514 274 119.032 274 112L273 112L276 173L257 171L251.039 62L249.09 25L248 10z"/>
<path style="fill:#ffffff; stroke:none;" d="M248 29L248 33L249 33L248 29z"/>
<path style="fill:#644907; stroke:none;" d="M411 81L411 92L412 92L414 82L411 81M414 83L415 84L414 83z"/>
<path style="fill:#ffffff; stroke:none;" d="M391 106L392 106C392.888 94.7596 396.589 90.7804 406 85C392.59 79.4276 388.762 96.5982 391 106z"/>
<path style="fill:#644907; stroke:none;" d="M415.667 84.3333L416.333 84.6667L415.667 84.3333z"/>
<path style="fill:#010101; stroke:none;" d="M405 85L406 86L405 85z"/>
<path style="fill:#644907; stroke:none;" d="M417.667 85.3333L418.333 85.6667L417.667 85.3333z"/>
<path style="fill:#010101; stroke:none;" d="M403.667 86.3333L404.333 86.6667L403.667 86.3333z"/>
<path style="fill:#644907; stroke:none;" d="M419 86L420 87L419 86z"/>
<path style="fill:#010101; stroke:none;" d="M401.667 87.3333L402.333 87.6667L401.667 87.3333z"/>
<path style="fill:#644907; stroke:none;" d="M420.667 87.3333L421.333 87.6667L420.667 87.3333z"/>
<path style="fill:#010101; stroke:none;" d="M400 88L401 89L400 88z"/>
<path style="fill:#644907; stroke:none;" d="M422 88L425 90L425 89L422 88z"/>
<path style="fill:#d9ccae; stroke:none;" d="M423 88L424 89L423 88z"/>
<path style="fill:#010101; stroke:none;" d="M398.667 89.3333L399.333 89.6667L398.667 89.3333M397 90L398 91L397 90z"/>
<path style="fill:#644907; stroke:none;" d="M425.667 90.3333L426.333 90.6667L425.667 90.3333z"/>
<path style="fill:#010101; stroke:none;" d="M395.667 91.3333L396.333 91.6667L395.667 91.3333M394 92L394 95L395 95L394 92z"/>
<path style="fill:#644907; stroke:none;" d="M410 92L410 114L411 114L410 92z"/>
<path style="fill:#010101; stroke:none;" d="M113 93C113.251 123.294 121.883 154.97 126 185C127.106 193.068 133.186 210.356 129.802 217.826C127.687 222.496 120.211 226.378 116 229L116 230C122.274 227.348 127.122 222.283 133 218.876C152.757 207.426 172.517 195.201 195 190L195 189C182.092 190.906 171.243 199.463 159 202.127C155.124 202.971 147.228 201.344 145.027 197.772C142.88 194.287 143.082 187.996 143 184L142 184L143.307 210.671L132 218L119.424 133L113 93z"/>
<path style="fill:#d9ccae; stroke:none;" d="M105 94L106 95L105 94z"/>
<path style="fill:#010101; stroke:none;" d="M393 95L393 101L394 101L393 95z"/>
<path style="fill:#ffffff; stroke:none;" d="M129 101L130 102L129 101z"/>
<path style="fill:#010101; stroke:none;" d="M392 101L392 106L393 106L392 101z"/>
<path style="fill:#644907; stroke:none;" d="M274 109L275 110L274 109M276 110L277 111L276 110M278 111L279 112L278 111M280 112L281 113L280 112M282 113L283 114L282 113M285 114L286 115L285 114M409 114L409 135L410 135L409 114M287 115L288 116L287 115M289 116L290 117L289 116M291 117L292 118L291 117M426 118L426 167L427 167C427 153.212 431.309 130.652 426 118M296 119L297 120L296 119M298 120L299 121L298 120M300 121L301 122L300 121M307 124L308 125L307 124M309 125L310 126L309 125M316 128L317 129L316 128M318 129L319 130L318 129M327 133L328 134L327 133z"/>
<path style="fill:#010101; stroke:none;" d="M408.333 135.667L408.667 136.333L408.333 135.667z"/>
<path style="fill:#ffffff; stroke:none;" d="M336 137L337 138L336 137z"/>
<path style="fill:#644907; stroke:none;" d="M408 137L408 140L409 140L408 137z"/>
<path style="fill:#010101; stroke:none;" d="M408.333 140.667L408.667 141.333L408.333 140.667z"/>
<path style="fill:#ffffff; stroke:none;" d="M285 142L286 143L285 142z"/>
<path style="fill:#644907; stroke:none;" d="M408 142L408 157L409 157L408 142M350 143L351 144L350 143M352 144L353 145L352 144M357 146L358 147L357 146z"/>
<path style="fill:#ffffff; stroke:none;" d="M297 147L298 148L297 147z"/>
<path style="fill:#644907; stroke:none;" d="M359 147L360 148L359 147M361 148L362 149L361 148z"/>
<path style="fill:#ffffff; stroke:none;" d="M302 149L303 150L302 149z"/>
<path style="fill:#644907; stroke:none;" d="M364 149L365 150L364 149M366 150L367 151L366 150z"/>
<path style="fill:#ffffff; stroke:none;" d="M307 151L308 152L307 151z"/>
<path style="fill:#644907; stroke:none;" d="M368 151L369 152L368 151z"/>
<path style="fill:#ffffff; stroke:none;" d="M388 151L385 158L389 160L388 151M309 152L310 153L309 152z"/>
<path style="fill:#644907; stroke:none;" d="M370.667 152.333L371.333 152.667L370.667 152.333z"/>
<path style="fill:#ffffff; stroke:none;" d="M312 153L313 154L312 153z"/>
<path style="fill:#644907; stroke:none;" d="M373 153L374 154L373 153z"/>
<path style="fill:#ffffff; stroke:none;" d="M314 154L315 155L314 154z"/>
<path style="fill:#644907; stroke:none;" d="M375.667 154.333L376.333 154.667L375.667 154.333M377.667 155.333L378.333 155.667L377.667 155.333z"/>
<path style="fill:#ffffff; stroke:none;" d="M319 156L320 157L319 156z"/>
<path style="fill:#644907; stroke:none;" d="M379.667 156.333L380.333 156.667L379.667 156.333z"/>
<path style="fill:#ffffff; stroke:none;" d="M321 157L322 158L321 157z"/>
<path style="fill:#644907; stroke:none;" d="M382.667 157.333L383.333 157.667L382.667 157.333z"/>
<path style="fill:#010101; stroke:none;" d="M407 157L407 167L408 167L407 157z"/>
<path style="fill:#ffffff; stroke:none;" d="M324 158L325 159L324 158z"/>
<path style="fill:#644907; stroke:none;" d="M384.667 158.333L385.333 158.667L384.667 158.333z"/>
<path style="fill:#ffffff; stroke:none;" d="M326 159L327 160L326 159z"/>
<path style="fill:#644907; stroke:none;" d="M386.667 159.333L387.333 159.667L386.667 159.333z"/>
<path style="fill:#ffffff; stroke:none;" d="M329 160L330 161L329 160z"/>
<path style="fill:#644907; stroke:none;" d="M388 160L388 161L391 161L388 160z"/>
<path style="fill:#ffffff; stroke:none;" d="M331 161L332 162L331 161z"/>
<path style="fill:#644907; stroke:none;" d="M391.667 161.333L392.333 161.667L391.667 161.333z"/>
<path style="fill:#ffffff; stroke:none;" d="M333 162L334 163L333 162z"/>
<path style="fill:#644907; stroke:none;" d="M393 162L393 163L396 163L393 162M396 163L396 164L399 164L396 163z"/>
<path style="fill:#ffffff; stroke:none;" d="M338 164L339 165L338 164z"/>
<path style="fill:#644907; stroke:none;" d="M399.667 164.333L400.333 164.667L399.667 164.333M401 165L401 166L404 166L401 165M404.667 166.333L405.333 166.667L404.667 166.333z"/>
<path style="fill:#ffffff; stroke:none;" d="M345 167L346 168L345 167z"/>
<path style="fill:#644907; stroke:none;" d="M406 167L407 181L408 181L406 167z"/>
<path style="fill:#d9ccae; stroke:none;" d="M350 169L351 170L350 169M355 171L356 172L355 171M357 172L358 173L357 172z"/>
<path style="fill:#644907; stroke:none;" d="M425 172L425 221L426 221C426 207.212 430.309 184.652 425 172z"/>
<path style="fill:#d9ccae; stroke:none;" d="M360 173L361 174L360 173z"/>
<path style="fill:#cab276; stroke:none;" d="M281 174L282 175L281 174z"/>
<path style="fill:#ffffff; stroke:none;" d="M362 174L363 175L362 174z"/>
<path style="fill:#cab276; stroke:none;" d="M283.667 175.333L284.333 175.667L283.667 175.333z"/>
<path style="fill:#d9ccae; stroke:none;" d="M365 175L366 176L365 175z"/>
<path style="fill:#cab276; stroke:none;" d="M286 176L287 177L286 176z"/>
<path style="fill:#d9ccae; stroke:none;" d="M367 176L368 177L367 176z"/>
<path style="fill:#cab276; stroke:none;" d="M289 177L290 178L289 177z"/>
<path style="fill:#d9ccae; stroke:none;" d="M369 177L370 178L369 177z"/>
<path style="fill:#cab276; stroke:none;" d="M291 178L292 179L291 178z"/>
<path style="fill:#d9ccae; stroke:none;" d="M372 178L373 179L372 178z"/>
<path style="fill:#cab276; stroke:none;" d="M294 179L295 180L294 179z"/>
<path style="fill:#d9ccae; stroke:none;" d="M374 179L375 180L374 179M297 180L298 181L297 180z"/>
<path style="fill:#644907; stroke:none;" d="M375 180L376 181L375 180z"/>
<path style="fill:#010101; stroke:none;" d="M376 180L377 181L376 180z"/>
<path style="fill:#ffffff; stroke:none;" d="M300 181L301 182L300 181z"/>
<path style="fill:#cab276; stroke:none;" d="M369 181L370 182L369 181M333 193L333 194C346.847 197.281 358.539 206.799 373 202.576C376.087 201.674 381.861 200.926 383.397 197.697C385.134 194.043 384 187.977 384 184C366.676 179.059 350.205 189.439 333 193z"/>
<path style="fill:#644907; stroke:none;" d="M377 181L378 182L377 181z"/>
<path style="fill:#010101; stroke:none;" d="M378 181L379 182L378 181z"/>
<path style="fill:#d9ccae; stroke:none;" d="M379 181L380 182L379 181z"/>
<path style="fill:#644907; stroke:none;" d="M406 181L406 193L407 193L406 181z"/>
<path style="fill:#cab276; stroke:none;" d="M302 182L303 183L302 182z"/>
<path style="fill:#644907; stroke:none;" d="M379 182L379 183L383 184L383 183L379 182z"/>
<path style="fill:#d9ccae; stroke:none;" d="M381 182L382 183L381 182z"/>
<path style="fill:#cab276; stroke:none;" d="M362 183L363 184L362 183M359 184L360 185L359 184z"/>
<path style="fill:#d9ccae; stroke:none;" d="M386 184L387 185L386 184z"/>
<path style="fill:#cab276; stroke:none;" d="M310 185L311 186L310 185M385 185L386.028 210.61L405 220L404.972 194.394L385 185M313 186L314 187L313 186z"/>
<path style="fill:#d9ccae; stroke:none;" d="M393 187L394 188L393 187z"/>
<path style="fill:#cab276; stroke:none;" d="M321 189L322 190L321 189M324 190L325 191L324 190z"/>
<path style="fill:#ffffff; stroke:none;" d="M185 191L186 192L185 191M181.667 192.333L182.333 192.667L181.667 192.333z"/>
<path style="fill:#cab276; stroke:none;" d="M329 192L330 193L329 192z"/>
<path style="fill:#d9ccae; stroke:none;" d="M335 194L336 195L335 194z"/>
<path style="fill:#644907; stroke:none;" d="M406 194L406 208L407 208L406 194z"/>
<path style="fill:#d9ccae; stroke:none;" d="M338 195L339 196L338 195M340 196L341 197L340 196M343 197L344 198L343 197M346 198L347 199L346 198M349 199L350 200L349 199M351 200L352 201L351 200z"/>
<path style="fill:#ffffff; stroke:none;" d="M383 200C369.819 205.11 378.352 211.367 388 214L388 213L383 200z"/>
<path style="fill:#d9ccae; stroke:none;" d="M354 201L355 202L354 201M359 203L360 204L359 203z"/>
<path style="fill:#ffffff; stroke:none;" d="M362 204L363 205L362 204z"/>
<path style="fill:#cab276; stroke:none;" d="M154 205L155 206L154 205z"/>
<path style="fill:#644907; stroke:none;" d="M231 205L231 206L242 206L231 205M248 205L248 206L276 206L248 205M284 205L284 206L288 206L284 205z"/>
<path style="fill:#cab276; stroke:none;" d="M152 206L153 207L152 206M147 209L148 210L147 209z"/>
<path style="fill:#d9ccae; stroke:none;" d="M143 211L144 212L143 211M138 214L139 215L138 214z"/>
<path style="fill:#ffffff; stroke:none;" d="M389 214L390 215L389 214M394 215L395 216L394 215z"/>
<path style="fill:#644907; stroke:none;" d="M424 225L424 257L425 257L424 225z"/>
<path style="fill:#ffffff; stroke:none;" d="M126 249L127 250L126 249M125 250L126 251L125 250M124 251L125 252L124 251M123 252L124 253L123 252M122 253L123 254L122 253M121 254L122 255L121 254M120 255L121 256L120 255M119 256L120 257L119 256M118 257L119 258L118 257M117 258L118 259L117 258z"/>
<path style="fill:#cab276; stroke:none;" d="M388 258L389 259L388 258z"/>
<path style="fill:#ffffff; stroke:none;" d="M279 328C285.456 327.848 289.893 325.848 293 320C274.968 316.509 280.805 298.575 293 291.904C299.285 288.467 305.49 289.359 312 287.49C318.316 285.677 323.651 280.829 330 278.749C336.558 276.601 343.391 277.426 350 275.572C357.831 273.375 366.935 266.875 375 266.797C387.887 266.672 389.426 280.326 385 289C399.74 287.004 393.635 269.037 391 258C362.971 263.801 335.346 274.852 308 283.283C300.908 285.47 282.443 287.488 278.029 293.652C276.023 296.452 277.698 300.895 277.91 304C278.459 311.997 279 319.975 279 328M111 260C111.512 269.845 120.697 278.162 130 280L130 279C120.467 275.666 117.087 267.243 111 260z"/>
<path style="fill:#010101; stroke:none;" d="M112.333 260.667L112.667 261.333L112.333 260.667M115 261L115 267L116 267L115 261M113.333 262.667L113.667 263.333L113.333 262.667z"/>
<path style="fill:#644907; stroke:none;" d="M425 262L425 268L426 268L425 262z"/>
<path style="fill:#ffffff; stroke:none;" d="M365 264L366 265L365 264z"/>
<path style="fill:#010101; stroke:none;" d="M116 267L117 268L116 267z"/>
<path style="fill:#cab276; stroke:none;" d="M359 267L360 268L359 267z"/>
<path style="fill:#010101; stroke:none;" d="M117.333 268.667L117.667 269.333L117.333 268.667z"/>
<path style="fill:#ffffff; stroke:none;" d="M352 268L353 269L352 268z"/>
<path style="fill:#010101; stroke:none;" d="M118 270L119 271L118 270M119 271L120 272L119 271z"/>
<path style="fill:#ffffff; stroke:none;" d="M342 271L343 272L342 271z"/>
<path style="fill:#010101; stroke:none;" d="M120 272L121 273L120 272z"/>
<path style="fill:#ffffff; stroke:none;" d="M339 272L340 273L339 272z"/>
<path style="fill:#010101; stroke:none;" d="M121.333 273.667L121.667 274.333L121.333 273.667z"/>
<path style="fill:#cab276; stroke:none;" d="M340 273L341 274L340 273z"/>
<path style="fill:#ffffff; stroke:none;" d="M412 273L413 274L412 273z"/>
<path style="fill:#644907; stroke:none;" d="M426 273L426 277L427 277L426 273z"/>
<path style="fill:#010101; stroke:none;" d="M122 275L123 276L122 275M123.667 276.333L124.333 276.667L123.667 276.333z"/>
<path style="fill:#cab276; stroke:none;" d="M330 276L331 277L330 276z"/>
<path style="fill:#010101; stroke:none;" d="M125 277L125 278L128 278L125 277z"/>
<path style="fill:#ffffff; stroke:none;" d="M323 277L324 278L323 277z"/>
<path style="fill:#010101; stroke:none;" d="M128.667 278.333L129.333 278.667L128.667 278.333z"/>
<path style="fill:#ffffff; stroke:none;" d="M131.667 280.333L132.333 280.667L131.667 280.333M313 280L314 281L313 280z"/>
<path style="fill:#644907; stroke:none;" d="M427 280L427 284L428 284L427 280z"/>
<path style="fill:#ffffff; stroke:none;" d="M134.667 281.333L135.333 281.667L134.667 281.333M310 281L311 282L310 281M137 282L138 283L137 282M306 282L307 283L306 282M413 282L414 283L413 282M140 283L141 284L140 283z"/>
<path style="fill:#cab276; stroke:none;" d="M307 283L308 284L307 283z"/>
<path style="fill:#ffffff; stroke:none;" d="M143.667 284.333L144.333 284.667L143.667 284.333M300 284L301 285L300 284M146 285L146 286C152.504 288.37 159.338 287.971 166 289.757C171.419 291.21 175.736 294.981 181 296.49C185.73 297.846 191.138 296.734 196 297.09C203.254 297.622 208.614 301.773 214 295L196 294L196 293L198 293L198 292L191 293L191 292L193 292L193 291L185 292L185 291L187 291L187 290L179 291L179 290L181 290L181 289C177.709 289.549 174.14 291.438 175 288C171.239 289.254 162.244 289.026 163 286L146 285z"/>
<path style="fill:#010101; stroke:none;" d="M151 285L151 286L157 286L151 285z"/>
<path style="fill:#ffffff; stroke:none;" d="M297 285L298 286L297 285z"/>
<path style="fill:#cab276; stroke:none;" d="M301 285L302 286L301 285z"/>
<path style="fill:#010101; stroke:none;" d="M157 286L157 287L162 287L157 286M162 287L162 288L168 288L162 287M168 288L168 289L174 289L168 288z"/>
<path style="fill:#ffffff; stroke:none;" d="M287 288L288 289L287 288z"/>
<path style="fill:#644907; stroke:none;" d="M428 288L428 291L429 291L428 288z"/>
<path style="fill:#010101; stroke:none;" d="M174 289L174 290L179 290L174 289z"/>
<path style="fill:#ffffff; stroke:none;" d="M284 289L285 290L284 289z"/>
<path style="fill:#010101; stroke:none;" d="M179 290L179 291L185 291L179 290M185 291L185 292L191 292L185 291M191 292L191 293L196 293L191 292z"/>
<path style="fill:#cab276; stroke:none;" d="M278 292L279 293L278 292z"/>
<path style="fill:#010101; stroke:none;" d="M196 293L196 294L202 294L196 293z"/>
<path style="fill:#cab276; stroke:none;" d="M255 297C256.653 321.606 261.835 346.618 265.588 371C266.467 376.711 265.747 392.171 272 394L272 395L269 395L271 421L277 421L277 422L271 422L273 449L287 447L285 421L277 421L277 420C310.827 420 343.936 413.204 377 406.6C384.657 405.071 392.335 403.676 400 402.197C402.556 401.703 407.256 401.576 408.933 399.262C412.587 394.216 407.263 378.118 407 372C378.304 380.083 349.549 384.617 320 388.155C306.802 389.735 293.296 392.89 280 393L280 392L283 392L276 293L255 297z"/>
<path style="fill:#010101; stroke:none;" d="M202 294L202 295L207 295L202 294M207 295L207 296L213 296L207 295z"/>
<path style="fill:#644907; stroke:none;" d="M429 295L429 299L430 299L429 295z"/>
<path style="fill:#ffffff; stroke:none;" d="M219 296L220 297L219 296M215 297L215 298L219 298L215 297M224 297L225 298L224 297M230 300C233.587 307.107 234.264 313.192 228 319L228 320L241 322C239.335 313.037 241.736 300.285 230 300z"/>
<path style="fill:#010101; stroke:none;" d="M236 300L236 301L238 304L239 304L241 301L236 300z"/>
<path style="fill:#644907; stroke:none;" d="M430 302L430 306L431 306L430 302z"/>
<path style="fill:#010101; stroke:none;" d="M239 304L239 312L240 312L239 304z"/>
<path style="fill:#644907; stroke:none;" d="M431 310L431 313L432 313L431 310z"/>
<path style="fill:#010101; stroke:none;" d="M240 312L240 320L241 320L240 312z"/>
<path style="fill:#644907; stroke:none;" d="M432 317L432 320L433 320L432 317M433 324L433 327L434 327L433 324M434.333 332.667L434.667 333.333L434.333 332.667M435.333 339.667L435.667 340.333L435.333 339.667M436 346L436 349L437 349L436 346M437.333 354.667L437.667 355.333L437.333 354.667M438.333 361.667L438.667 362.333L438.333 361.667M439.333 368.667L439.667 369.333L439.333 368.667M406 371L407 372L406 371M402 372L402 373L406 373L402 372M398 373L398 374L402 374L398 373M394 374L394 375L398 375L394 374M390 375L390 376L394 376L390 375M440.333 375.667L440.667 376.333L440.333 375.667M386 376L386 377L390 377L386 376M408.333 376.667L408.667 377.333L408.333 376.667M382 377L382 378L386 378L382 377M378 378L378 379L382 379L378 378M374 379L374 380L378 380L374 379M370 380L370 381L374 381L370 380M364 381L364 382L370 382L364 381M357 382L357 383L364 383L357 382M351 383L351 384L356 384L351 383M441 383L442 384L441 383M344 384L344 385L348 385L344 384M336 385L336 386L341 386L336 385M328 386L328 387L333 387L328 386M320 387L320 388L326 388L320 387M312 388L312 389L318 389L312 388M304 389L304 390L310 390L304 389M296 390L296 391L303 391L296 390M442.333 390.667L442.667 391.333L442.333 390.667M288 391L288 392L295 392L288 391M280 392L280 393L283 393L280 392M284 392L284 393L288 393L284 392M272 393L272 394L280 394L272 393M269 394L269 395L272 395L269 394M409.333 394.667L409.667 395.333L409.333 394.667M443.333 397.667L443.667 398.333L443.333 397.667z"/>
<path style="fill:#d9ccae; stroke:none;" d="M269 400L270 401L269 400z"/>
<path style="fill:#644907; stroke:none;" d="M444 405L445 406L444 405M366 408L367 409L366 408M445 412L446 413L445 412M303 418L304 419L303 418M290.667 419.333L291.333 419.667L290.667 419.333M446 419L447 420L446 419M277 420L277 421L285 421L277 420M271 421L271 422L277 422L271 421z"/>
<path style="fill:#ffffff; stroke:none;" d="M255.333 426.667L255.667 427.333L255.333 426.667z"/>
<path style="fill:#cab276; stroke:none;" d="M286 426L287 427L286 426z"/>
<path style="fill:#644907; stroke:none;" d="M412.667 426.333L413.333 426.667L412.667 426.333M408 427L408 428L412 428L408 427M414 427L414 432L415 432L414 427M404 428L404 429L408 429L404 428M399 429L399 430L404 430L399 429M395 430L395 431L399 431L395 430M391 431L391 432L395 432L391 431M386 432L386 433L391 433L386 432M415 432L415 442L416 442L415 432M382 433L382 434L386 434L382 433M378 434L378 435L382 435L378 434M373 435L373 436L378 436L373 435z"/>
<path style="fill:#ffffff; stroke:none;" d="M341 470C347.869 472.882 356.993 470.682 364 469.375C377.363 466.883 391.216 463.074 405 464.09C413.35 464.706 415.476 470.625 422.184 473.397C427.939 475.775 440.099 474.687 446 473.072C451.422 471.588 460.604 469.297 464.816 465.606C472.792 458.613 477.777 442.534 465.985 436.457C464.109 435.49 462.084 435.153 460 435.044C443.567 434.182 454.53 448.691 452.111 457.961C450.916 462.54 443.347 467.433 439 468.57C427.246 471.644 424.741 458.753 415 458.434C390.604 457.636 365.474 468.949 341 470M330 442L330 443L369 437C356.041 431.562 342.544 440.379 330 442z"/>
<path style="fill:#644907; stroke:none;" d="M369 436L369 437L373 437L369 436M365 437L365 438L369 438L365 437M360 438L360 439L365 439L360 438M356 439L356 440L360 440L356 439M352 440L352 441L356 441L352 440M345 441L345 442L352 442L345 441M449 441L450 442L449 441M335 442L335 443L345 443L335 442M416 442L416 452L417 452L416 442z"/>
<path style="fill:#010101; stroke:none;" d="M450 442L450 449L451 449L450 442z"/>
<path style="fill:#644907; stroke:none;" d="M325 443L325 444L335 444L325 443M316 444L316 445L325 445L316 444M306 445L306 446L316 446L306 445M297 446L297 447L306 447L297 446z"/>
<path style="fill:#ffffff; stroke:none;" d="M284 447L284 448L287 448L284 447z"/>
<path style="fill:#644907; stroke:none;" d="M288 447L288 448L297 448L288 447z"/>
<path style="fill:#ffffff; stroke:none;" d="M276 448L277 449L276 448z"/>
<path style="fill:#644907; stroke:none;" d="M277 448L277 449L287 449L277 448M273 449L273 450L277 450L273 449z"/>
<path style="fill:#010101; stroke:none;" d="M451 449L451 456L452 456L451 449z"/>
<path style="fill:#644907; stroke:none;" d="M417 452L417 457L418 457L417 452z"/>
<path style="fill:#010101; stroke:none;" d="M452 456L452 460L453 460L452 456M414 457L414 458L418 458L414 457M408 458L408 459L414 459L408 458M418 458L419 459L418 458M402 459L402 460L408 460L402 459M419 459L420 460L419 459z"/>
<path style="fill:#644907; stroke:none;" d="M274 460L275 461L274 460z"/>
<path style="fill:#010101; stroke:none;" d="M396 460L396 461L402 461L396 460M420 460L421 461L420 460M451 460L452 461L451 460M390 461L390 462L396 462L390 461M421 461L422 462L421 461M449.667 461.333L450.333 461.667L449.667 461.333M384 462L384 463L390 463L384 462M422 462L423 463L422 462M448 462L449 463L448 462M378 463L378 464L384 464L378 463M423 463L424 464L423 463M447 463L448 464L447 463M372 464L372 465L378 465L372 464M424 464L425 465L424 464M445.667 464.333L446.333 464.667L445.667 464.333z"/>
<path style="fill:#644907; stroke:none;" d="M365 465L366 466L365 465z"/>
<path style="fill:#010101; stroke:none;" d="M366 465L366 466L372 466L366 465M425 465L426 466L425 465M444 465L445 466L444 465M359 466L359 467L365 467L359 466M426 466L427 467L426 466M439 466L428 468L428 469L441 469L439 466M443 466L444 467L443 466z"/>
<path style="fill:#644907; stroke:none;" d="M275.333 467.667L275.667 468.333L275.333 467.667z"/>
<path style="fill:#010101; stroke:none;" d="M353 467L353 468L359 468L353 467M427 467L428 468L427 467M441.667 467.333L442.333 467.667L441.667 467.333M347 468L347 469L353 469L347 468M341 469L341 470L347 470L341 469M309 474L309 475L335 472L309 474z"/>
<path style="fill:#ffffff; stroke:none;" d="M309 475L309 476C319.585 476 328.104 476.059 338 472L309 475z"/>
<path style="fill:#644907; stroke:none;" d="M276 474L276 477L277 477L276 474M286 476L286 477L295 477L286 476z"/>
<path style="fill:#ffffff; stroke:none;" d="M291 480L286 486C284.034 492.388 272.448 491.777 267 491L266 498L296 498C295.619 487.201 301.221 484.143 307 476L291 480z"/>
<path style="fill:#644907; stroke:none;" d="M277 477L277 478L286 478L277 477z"/>
<path style="fill:#010101; stroke:none;" d="M293 478L294 479L293 478M292.333 479.667L292.667 480.333L292.333 479.667M291 481L292 482L291 481M290 482L291 483L290 482M289 483L290 484L289 483M288 484L289 485L288 484M277 485L277 490L273 490L273 491L281 491L281 490L278 490L277 485M287.333 485.667L287.667 486.333L287.333 485.667z"/>
<path style="fill:#ffffff; stroke:none;" d="M265 487L266 488L265 487z"/>
<path style="fill:#010101; stroke:none;" d="M286 487L287 488L286 487M285 488L286 489L285 488M281 489L281 490L285 490L281 489M269 491L269 492L273 492L269 491z"/>
<path style="fill:#ffffff; stroke:none;" d="M266 499L266 500L297 500L266 499M323 499L323 500L326 500L323 499z"/>
</svg>
