<?xml version="1.0" standalone="yes"?>
<svg xmlns="http://www.w3.org/2000/svg" width="500" height="500">
<path style="fill:#010101; stroke:none;" d="M0 0L0 500L500 500L500 0L0 0z"/>
<path style="fill:#f0eee8; stroke:none;" d="M189 51C182.266 53.8414 160.924 56.9905 169 69L158 81L159 84L157 83C156.81 88.3732 153.622 92.7175 153.105 98C150.782 121.737 153.67 145.074 159.373 168C161.114 174.998 161.726 183.293 164.854 189.826C171.092 202.853 192.394 206.579 197 222C200.223 222 199.783 240.348 198.667 244C197.126 249.041 192.874 252.959 191.333 258C188.207 268.232 192.978 284.492 194 295C194.486 300 191.46 303.267 191 308C189.951 318.79 194.075 329.549 196 340L197 340L197 336L198 336L198 340C213.783 335.453 226.273 322.435 242 317.785C274.86 308.067 309.388 312 343 312L343 313L317 313L317 470L321 470L321 471L269 475L269 476C283.408 480.567 308.825 482.256 322.741 475.146C330.168 471.351 338.086 463.617 345 458.518C353.726 452.082 364.504 445.326 369.427 435C371.826 429.97 369.382 425.758 370.084 420.715C371.637 409.566 373.999 398.482 374 387L375 387L375 391L376 391L377 382L376 382L376 387L375 387L375 369L376 369L376 380L377 380C379.541 371.985 377.905 364.292 378.004 356C378.22 337.839 379.431 323.588 370 307L369 307L369 311L368 311L369 304L368 304L367 306C365.657 291.317 363.187 276.627 361.282 262C360.196 253.67 360.316 243.859 357.121 236C352.629 224.95 339.404 218.059 338.105 205C335.917 183.006 346.227 167.44 351.391 147C353.49 138.693 352 128.536 352 120C352 109.789 353.614 98.0248 351.621 88C346.529 62.3821 326.556 33.193 299 31L299 30L303 30C297.583 23.1456 289.027 22.8831 281 21.7006C258.294 18.3558 234.35 26.3008 214 35.6983C205.833 39.4698 190.081 39.2654 189 51z"/>
<path style="fill:#010101; stroke:none;" d="M189 50C221.841 28.6426 261.72 28.3951 299 30C290.227 25.7824 280.3 27.2737 271 27.9105C250.661 29.3034 234.525 31.1584 215 37.6667C206.223 40.5923 194.761 42.2637 189 50M182 55L169 68L182 55z"/>
<path style="fill:#a3999b; stroke:none;" d="M248 81C248 84.1828 245.385 82.6904 243 82C243.478 84.3914 234.545 87.7777 231 91C224.233 97.152 219.344 108.973 216 117C212.933 124.36 213.984 132.065 212 140C205.39 166.441 211.397 201.953 221 225C224.471 233.33 229.929 241.393 235 249C249.094 270.141 277.987 271.017 293 251C304.486 235.686 303.451 219.196 308 201C309.663 194.348 310.807 181.229 309 174C303.023 150.091 301.365 128.198 289 107C286.209 102.215 272.53 89.8796 273 88L248 81z"/>
<path style="fill:#010101; stroke:none;" d="M249 81L249 82L258 82L249 81M244 82L244 83L249 83L244 82M258 82L258 83L262 83L258 82M241 83L241 84L244 84L241 83M262.667 83.3333L263.333 83.6667L262.667 83.3333M239.667 84.3333L240.333 84.6667L239.667 84.3333M264.667 84.3333L265.333 84.6667L264.667 84.3333M238 85L239 86L238 85M266.667 85.3333L267.333 85.6667L266.667 85.3333M236.667 86.3333L237.333 86.6667L236.667 86.3333M249.667 86.3333L250.333 86.6667L249.667 86.3333z"/>
<path style="fill:#51393a; stroke:none;" d="M251 86L251 87C267.749 90.2482 272.658 99.9529 285 110C277.334 96.5449 266.353 87.9828 251 86z"/>
<path style="fill:#f0eee8; stroke:none;" d="M254.667 86.3333L255.333 86.6667L254.667 86.3333z"/>
<path style="fill:#010101; stroke:none;" d="M268.667 86.3333L269.333 86.6667L268.667 86.3333M235 87L236 88L235 87z"/>
<path style="fill:#51393a; stroke:none;" d="M220 122L221 122C225.752 107.42 233.201 92.5514 249 88C234.176 83.935 222.499 111.205 220 122z"/>
<path style="fill:#f0eee8; stroke:none;" d="M219 130L218 130L218 128L217 128L218 136L217 136L217 134L216 134C216.58 137.48 218.842 144.961 215 144L216 159L215 159L215 149L214 149L215 183C218.601 183 216.725 187.494 216 190C219.423 190 217.707 193.557 217 196L220.333 203L228 229L230 228L229 231L231 230L230 233L232 232L231 235L233 234L232 237L234 236L233 239L235 238L234 241L237 241C246.592 263.655 276.116 268.602 289.532 247C301.05 228.455 303.998 205.446 303.998 184C303.998 174.843 301.849 166.157 303 157L302 157L302 160L301 160L299 141C296.564 141 297.385 140.214 298 138C294.676 138 293.675 129.09 294 126L292 127L293 124L291 125L291 124L291 119L290 121L289 121L290 117L288 118L289 115L287 116L288 113C285.029 113 283.485 108.424 281.667 106C277.162 99.9943 271.86 93.5966 265 90.1667C241.024 78.1789 219 108.043 219 130M259.667 87.3333L260.333 87.6667L259.667 87.3333z"/>
<path style="fill:#010101; stroke:none;" d="M270 87L271 88L270 87M234 88L235 89L234 88z"/>
<path style="fill:#f0eee8; stroke:none;" d="M263 88L264 89L263 88z"/>
<path style="fill:#010101; stroke:none;" d="M271 88L272 89L271 88M232.667 89.3333L233.333 89.6667L232.667 89.3333z"/>
<path style="fill:#f0eee8; stroke:none;" d="M265 89L266 90L265 89z"/>
<path style="fill:#010101; stroke:none;" d="M272.667 89.3333L273.333 89.6667L272.667 89.3333M231 90L232 91L231 90M274 90L275 91L274 90M230 91L231 92L230 91z"/>
<path style="fill:#f0eee8; stroke:none;" d="M268 91L269 92L268 91z"/>
<path style="fill:#010101; stroke:none;" d="M275 91L276 92L275 91M229 92L230 93L229 92z"/>
<path style="fill:#f0eee8; stroke:none;" d="M269 92L270 93L269 92z"/>
<path style="fill:#010101; stroke:none;" d="M276 92L277 93L276 92M228.333 93.6667L228.667 94.3333L228.333 93.6667z"/>
<path style="fill:#f0eee8; stroke:none;" d="M271 93L272 94L271 93z"/>
<path style="fill:#010101; stroke:none;" d="M277.667 93.3333L278.333 93.6667L277.667 93.3333z"/>
<path style="fill:#f0eee8; stroke:none;" d="M272 94L273 95L272 94z"/>
<path style="fill:#010101; stroke:none;" d="M279 94L280 95L279 94M227 95L228 96L227 95z"/>
<path style="fill:#f0eee8; stroke:none;" d="M273 95L274 96L273 95z"/>
<path style="fill:#010101; stroke:none;" d="M280 95L281 96L280 95M226 96L227 97L226 96z"/>
<path style="fill:#f0eee8; stroke:none;" d="M274 96L275 97L274 96z"/>
<path style="fill:#010101; stroke:none;" d="M281 96L282 97L281 96M225.333 97.6667L225.667 98.3333L225.333 97.6667z"/>
<path style="fill:#f0eee8; stroke:none;" d="M275 97L276 98L275 97z"/>
<path style="fill:#010101; stroke:none;" d="M282.333 97.6667L282.667 98.3333L282.333 97.6667z"/>
<path style="fill:#f0eee8; stroke:none;" d="M276 98L277 99L276 98z"/>
<path style="fill:#010101; stroke:none;" d="M224.333 99.6667L224.667 100.333L224.333 99.6667z"/>
<path style="fill:#f0eee8; stroke:none;" d="M277 99L278 100L277 99z"/>
<path style="fill:#010101; stroke:none;" d="M283 99L284 100L283 99z"/>
<path style="fill:#f0eee8; stroke:none;" d="M278 100L279 101L278 100z"/>
<path style="fill:#010101; stroke:none;" d="M284 100L285 101L284 100M223.333 101.667L223.667 102.333L223.333 101.667z"/>
<path style="fill:#f0eee8; stroke:none;" d="M279 101L280 102L279 101z"/>
<path style="fill:#010101; stroke:none;" d="M285.333 101.667L285.667 102.333L285.333 101.667z"/>
<path style="fill:#f0eee8; stroke:none;" d="M280.333 102.667L280.667 103.333L280.333 102.667z"/>
<path style="fill:#010101; stroke:none;" d="M222.333 103.667L222.667 104.333L222.333 103.667M286 103L287 104L286 103z"/>
<path style="fill:#f0eee8; stroke:none;" d="M281 104L282 105L281 104z"/>
<path style="fill:#010101; stroke:none;" d="M287.333 104.667L287.667 105.333L287.333 104.667M221.333 105.667L221.667 106.333L221.333 105.667z"/>
<path style="fill:#f0eee8; stroke:none;" d="M226 105L227 106L226 105z"/>
<path style="fill:#010101; stroke:none;" d="M288 106L289 107L288 106M220.333 107.667L220.667 108.333L220.333 107.667z"/>
<path style="fill:#f0eee8; stroke:none;" d="M225 107L226 108L225 107M283 107L284 108L283 107z"/>
<path style="fill:#010101; stroke:none;" d="M289.333 107.667L289.667 108.333L289.333 107.667z"/>
<path style="fill:#f0eee8; stroke:none;" d="M224.333 108.667L224.667 109.333L224.333 108.667z"/>
<path style="fill:#010101; stroke:none;" d="M219.333 109.667L219.667 110.333L219.333 109.667M290.333 109.667L290.667 110.333L290.333 109.667M285 110L286 111L285 110M218.333 111.667L218.667 112.333L218.333 111.667z"/>
<path style="fill:#f0eee8; stroke:none;" d="M223 111L224 112L223 111z"/>
<path style="fill:#51393a; stroke:none;" d="M285 111L286 112L285 111z"/>
<path style="fill:#010101; stroke:none;" d="M291.333 111.667L291.667 112.333L291.333 111.667z"/>
<path style="fill:#51393a; stroke:none;" d="M286.333 112.667L286.667 113.333L286.333 112.667z"/>
<path style="fill:#010101; stroke:none;" d="M217.333 113.667L217.667 114.333L217.333 113.667z"/>
<path style="fill:#f0eee8; stroke:none;" d="M222 113L223 114L222 113z"/>
<path style="fill:#010101; stroke:none;" d="M292 113L293 114L292 113z"/>
<path style="fill:#51393a; stroke:none;" d="M287.333 114.667L287.667 115.333L287.333 114.667z"/>
<path style="fill:#010101; stroke:none;" d="M293.333 114.667L293.667 115.333L293.333 114.667M216.333 115.667L216.667 116.333L216.333 115.667z"/>
<path style="fill:#51393a; stroke:none;" d="M288.333 116.667L288.667 117.333L288.333 116.667z"/>
<path style="fill:#010101; stroke:none;" d="M294.333 116.667L294.667 117.333L294.333 116.667M215 117L214 123L215 123L215 117z"/>
<path style="fill:#51393a; stroke:none;" d="M289 118L289 121L290 121L289 118z"/>
<path style="fill:#010101; stroke:none;" d="M295 118L295 121L296 121L295 118z"/>
<path style="fill:#f0eee8; stroke:none;" d="M215 119L216 120L215 119z"/>
<path style="fill:#51393a; stroke:none;" d="M290.333 121.667L290.667 122.333L290.333 121.667z"/>
<path style="fill:#010101; stroke:none;" d="M296 121L296 124L297 124L296 121M219 122L220 123L219 122M213 123L213 127L214 127L213 123z"/>
<path style="fill:#51393a; stroke:none;" d="M219.333 123.667L219.667 124.333L219.333 123.667M291.333 123.667L291.667 124.333L291.333 123.667z"/>
<path style="fill:#010101; stroke:none;" d="M297.333 124.667L297.667 125.333L297.333 124.667M218 125L219 126L218 125z"/>
<path style="fill:#51393a; stroke:none;" d="M292.333 125.667L292.667 126.333L292.333 125.667M218 126L218 130L219 130L218 126z"/>
<path style="fill:#010101; stroke:none;" d="M298 126L298 129L299 129L298 126M212 127L212 133L213 133L212 127z"/>
<path style="fill:#51393a; stroke:none;" d="M293.333 127.667L293.667 128.333L293.333 127.667M294 129L294 132L295 132L294 129z"/>
<path style="fill:#010101; stroke:none;" d="M299 129L299 132L300 132L299 129z"/>
<path style="fill:#51393a; stroke:none;" d="M217 130L217 136L218 136L217 130M295 132L295 135L296 135L295 132z"/>
<path style="fill:#010101; stroke:none;" d="M300.333 132.667L300.667 133.333L300.333 132.667M211 133L211 141L212 141L211 133M301 134L301 137L302 137L301 134z"/>
<path style="fill:#51393a; stroke:none;" d="M296 135L296 139L297 139L296 135M216 136L216 145L217 145L216 136z"/>
<path style="fill:#010101; stroke:none;" d="M302 137L302 140L303 140L302 137z"/>
<path style="fill:#51393a; stroke:none;" d="M297 139L297 142L298 142L297 139z"/>
<path style="fill:#010101; stroke:none;" d="M303.333 140.667L303.667 141.333L303.333 140.667M210 141L210 149L211 149L210 141z"/>
<path style="fill:#51393a; stroke:none;" d="M298 142L298 146L299 146L298 142z"/>
<path style="fill:#010101; stroke:none;" d="M304 142L304 148L305 148L304 142z"/>
<path style="fill:#51393a; stroke:none;" d="M215 145L215 159L216 159L215 145M299 146L299 150L300 150L299 146z"/>
<path style="fill:#010101; stroke:none;" d="M305 148L305 154L306 154L305 148M209 149L209 175L210 175L209 149z"/>
<path style="fill:#a3999b; stroke:none;" d="M293 182L290 150C284.538 150.235 276.309 150.756 272.514 155.228C267.771 160.816 270.406 179.217 277.055 182.681C281.741 185.123 288.134 182.917 293 182z"/>
<path style="fill:#51393a; stroke:none;" d="M300 150L300 154L301 154L300 150z"/>
<path style="fill:#a3999b; stroke:none;" d="M248 155L248 162L259 161L259 168L250 169L250 175L260 174L260 180L251 181L251 187L268 185L266 153L248 155z"/>
<path style="fill:#51393a; stroke:none;" d="M301 154L301 160L302 160L301 154z"/>
<path style="fill:#010101; stroke:none;" d="M306 154L306 158L307 158L306 154z"/>
<path style="fill:#a3999b; stroke:none;" d="M231.001 156.573C216.641 160.644 222.194 194.303 238.995 189.427C251.982 185.659 247.261 151.964 231.001 156.573z"/>
<path style="fill:#f0eee8; stroke:none;" d="M285 177L284 157C274.974 158.882 276.559 175.622 285 177z"/>
<path style="fill:#010101; stroke:none;" d="M307 158L307 165L308 165L307 158z"/>
<path style="fill:#51393a; stroke:none;" d="M214 159L214 172L215 172L214 159M302 160L302 167L303 167L302 160z"/>
<path style="fill:#f0eee8; stroke:none;" d="M232.559 163.176C228.987 165.345 232.154 185.42 236.441 182.824C240.655 180.272 237.12 160.406 232.559 163.176z"/>
<path style="fill:#010101; stroke:none;" d="M308 165L308 174L309 174L308 165z"/>
<path style="fill:#51393a; stroke:none;" d="M303 167L303 177L304 177L303 167M215 172L215 182L216 182L215 172z"/>
<path style="fill:#010101; stroke:none;" d="M309 174L309 200L310 200L309 174M210 175L210 184L211 184L210 175M304 177L304 191L305 191L304 177z"/>
<path style="fill:#51393a; stroke:none;" d="M216 182L216 189L217 189L216 182z"/>
<path style="fill:#010101; stroke:none;" d="M211 184L211 192L212 192L211 184z"/>
<path style="fill:#51393a; stroke:none;" d="M217 189L217 195L218 195L217 189M303 191L303 204L304 204L303 191z"/>
<path style="fill:#010101; stroke:none;" d="M212 192L212 199L213 199L212 192z"/>
<path style="fill:#51393a; stroke:none;" d="M218 195L218 199L219 199L218 195z"/>
<path style="fill:#010101; stroke:none;" d="M213 199L213 203L214 203L213 199z"/>
<path style="fill:#51393a; stroke:none;" d="M219 199L219 203L220 203L219 199z"/>
<path style="fill:#010101; stroke:none;" d="M308 200L308 209L309 209L308 200M214 203L215 209L216 209L214 203z"/>
<path style="fill:#51393a; stroke:none;" d="M220 203L220 206L221 206L220 203M302 204L302 214L303 214L302 204z"/>
<path style="fill:#f0eee8; stroke:none;" d="M215 206L216 207L215 206z"/>
<path style="fill:#010101; stroke:none;" d="M220 206L221 207L220 206z"/>
<path style="fill:#51393a; stroke:none;" d="M221 207L221 210L222 210L221 207z"/>
<path style="fill:#010101; stroke:none;" d="M216 209L216 212L217 212L216 209M307 209L307 215L308 215L307 209z"/>
<path style="fill:#51393a; stroke:none;" d="M222 210L222 214L223 214L222 210z"/>
<path style="fill:#010101; stroke:none;" d="M217 212L217 215L218 215L217 212z"/>
<path style="fill:#51393a; stroke:none;" d="M223.333 214.667L223.667 215.333L223.333 214.667M301 214L301 218L302 218L301 214z"/>
<path style="fill:#010101; stroke:none;" d="M218 215L218 219L219 219L218 215M306 215L306 219L307 219L306 215M223 216L224 217L223 216z"/>
<path style="fill:#51393a; stroke:none;" d="M224.333 217.667L224.667 218.333L224.333 217.667z"/>
<path style="fill:#010101; stroke:none;" d="M301.333 218.667L301.667 219.333L301.333 218.667M219 219L220 225L221 225L219 219M224 219L225 220L224 219M305 219L305 223L306 223L305 219z"/>
<path style="fill:#51393a; stroke:none;" d="M225 220L226 221L225 220M300 220L301 221L300 220z"/>
<path style="fill:#010101; stroke:none;" d="M225 221L226 222L225 221M300 221L300 224L301 224L300 221z"/>
<path style="fill:#f0eee8; stroke:none;" d="M220 222L221 223L220 222z"/>
<path style="fill:#51393a; stroke:none;" d="M226.333 222.667L226.667 223.333L226.333 222.667z"/>
<path style="fill:#010101; stroke:none;" d="M304 223L304 227L305 227L304 223z"/>
<path style="fill:#51393a; stroke:none;" d="M227.333 224.667L227.667 225.333L227.333 224.667M299 224L300 225L299 224z"/>
<path style="fill:#010101; stroke:none;" d="M221.333 225.667L221.667 226.333L221.333 225.667M299.333 225.667L299.667 226.333L299.333 225.667z"/>
<path style="fill:#51393a; stroke:none;" d="M228.333 226.667L228.667 227.333L228.333 226.667z"/>
<path style="fill:#010101; stroke:none;" d="M222.333 227.667L222.667 228.333L222.333 227.667z"/>
<path style="fill:#51393a; stroke:none;" d="M298.333 227.667L298.667 228.333L298.333 227.667z"/>
<path style="fill:#010101; stroke:none;" d="M303 227L303 230L304 230L303 227z"/>
<path style="fill:#51393a; stroke:none;" d="M229.333 228.667L229.667 229.333L229.333 228.667z"/>
<path style="fill:#010101; stroke:none;" d="M223.333 229.667L223.667 230.333L223.333 229.667z"/>
<path style="fill:#51393a; stroke:none;" d="M297 229L297 232L298 232L297 229M230.333 230.667L230.667 231.333L230.333 230.667z"/>
<path style="fill:#010101; stroke:none;" d="M302 230L302 234L303 234L302 230M224.333 231.667L224.667 232.333L224.333 231.667z"/>
<path style="fill:#51393a; stroke:none;" d="M231.333 232.667L231.667 233.333L231.333 232.667M296.333 232.667L296.667 233.333L296.333 232.667z"/>
<path style="fill:#010101; stroke:none;" d="M225.333 233.667L225.667 234.333L225.333 233.667z"/>
<path style="fill:#51393a; stroke:none;" d="M232.333 234.667L232.667 235.333L232.333 234.667z"/>
<path style="fill:#010101; stroke:none;" d="M296 234L297 235L296 234M301 234L301 237L302 237L301 234M226 235L227 236L226 235z"/>
<path style="fill:#51393a; stroke:none;" d="M295 235L296 236L295 235z"/>
<path style="fill:#010101; stroke:none;" d="M227.333 236.667L227.667 237.333L227.333 236.667z"/>
<path style="fill:#51393a; stroke:none;" d="M233.333 236.667L233.667 237.333L233.333 236.667z"/>
<path style="fill:#010101; stroke:none;" d="M295 236L296 237L295 236z"/>
<path style="fill:#51393a; stroke:none;" d="M294.333 237.667L294.667 238.333L294.333 237.667z"/>
<path style="fill:#010101; stroke:none;" d="M300.333 237.667L300.667 238.333L300.333 237.667M228.333 238.667L228.667 239.333L228.333 238.667z"/>
<path style="fill:#51393a; stroke:none;" d="M234 238L235 239L234 238z"/>
<path style="fill:#010101; stroke:none;" d="M234 239L235 240L234 239z"/>
<path style="fill:#51393a; stroke:none;" d="M293.333 239.667L293.667 240.333L293.333 239.667z"/>
<path style="fill:#010101; stroke:none;" d="M299.333 239.667L299.667 240.333L299.333 239.667M229.333 240.667L229.667 241.333L229.333 240.667z"/>
<path style="fill:#51393a; stroke:none;" d="M235 240L236 241L235 240M236 241L237 242L236 241M292 241L293 242L292 241z"/>
<path style="fill:#010101; stroke:none;" d="M298.333 241.667L298.667 242.333L298.333 241.667M230 242L231 243L230 242M236 242L237 243L236 242M292 242L293 243L292 242M231.333 243.667L231.667 244.333L231.333 243.667z"/>
<path style="fill:#51393a; stroke:none;" d="M237 243L238 244L237 243M291 243L292 244L291 243z"/>
<path style="fill:#010101; stroke:none;" d="M297.333 243.667L297.667 244.333L297.333 243.667z"/>
<path style="fill:#51393a; stroke:none;" d="M238 244L239 245L238 244z"/>
<path style="fill:#010101; stroke:none;" d="M291 244L292 245L291 244M232 245L233 246L232 245z"/>
<path style="fill:#51393a; stroke:none;" d="M239 245L240 246L239 245z"/>
<path style="fill:#010101; stroke:none;" d="M290.333 245.667L290.667 246.333L290.333 245.667M296.333 245.667L296.667 246.333L296.333 245.667M233 246L235 249L233 246M239 246L240 247L239 246z"/>
<path style="fill:#f0eee8; stroke:none;" d="M234 247L235 248L234 247z"/>
<path style="fill:#51393a; stroke:none;" d="M240 247L241 248L240 247z"/>
<path style="fill:#010101; stroke:none;" d="M289 247L290 248L289 247M295 247L296 248L295 247z"/>
<path style="fill:#51393a; stroke:none;" d="M241 248L242 249L241 248z"/>
<path style="fill:#010101; stroke:none;" d="M288.333 248.667L288.667 249.333L288.333 248.667M294 248L295 249L294 248M235 249L236 250L235 249z"/>
<path style="fill:#51393a; stroke:none;" d="M242 249L243 250L242 249z"/>
<path style="fill:#010101; stroke:none;" d="M293.333 249.667L293.667 250.333L293.333 249.667M236.333 250.667L236.667 251.333L236.333 250.667z"/>
<path style="fill:#51393a; stroke:none;" d="M243 250L244 251L243 250z"/>
<path style="fill:#010101; stroke:none;" d="M287 250L288 251L287 250z"/>
<path style="fill:#51393a; stroke:none;" d="M244 251L245 252L244 251z"/>
<path style="fill:#010101; stroke:none;" d="M286 251L287 252L286 251M292 251L293 252L292 251M237 252L238 253L237 252M245 252L246 253L245 252M285 252L286 253L285 252M291 252L292 253L291 252M238 253L239 254L238 253M246 253L247 254L246 253z"/>
<path style="fill:#51393a; stroke:none;" d="M284 253L285 254L284 253z"/>
<path style="fill:#010101; stroke:none;" d="M290 253L291 254L290 253M239 254L240 255L239 254M247 254L248 255L247 254z"/>
<path style="fill:#51393a; stroke:none;" d="M283 254L284 255L283 254z"/>
<path style="fill:#010101; stroke:none;" d="M289.333 254.667L289.667 255.333L289.333 254.667M240.667 255.333L241.333 255.667L240.667 255.333M248 255L249 256L248 255z"/>
<path style="fill:#51393a; stroke:none;" d="M249 255L250 256L249 255z"/>
<path style="fill:#010101; stroke:none;" d="M282 255L283 256L282 255M242 256L243 257L242 256z"/>
<path style="fill:#51393a; stroke:none;" d="M250 256L251 257L250 256z"/>
<path style="fill:#010101; stroke:none;" d="M281 256L282 257L281 256M288 256L289 257L288 256M243 257L244 258L243 257M251 257L252 258L251 257M279.667 257.333L280.333 257.667L279.667 257.333M287 257L288 258L287 257M244 258L245 259L244 258M252.667 258.333L253.333 258.667L252.667 258.333M277.667 258.333L278.333 258.667L277.667 258.333z"/>
<path style="fill:#f0eee8; stroke:none;" d="M285 258L286 259L285 258z"/>
<path style="fill:#010101; stroke:none;" d="M286 258L287 259L286 258M245 259L246 260L245 259M254.667 259.333L255.333 259.667L254.667 259.333M275.667 259.333L276.333 259.667L275.667 259.333M284.667 259.333L285.333 259.667L284.667 259.333M246 260L247 261L246 260M256.667 260.333L257.333 260.667L256.667 260.333z"/>
<path style="fill:#51393a; stroke:none;" d="M258.667 260.333L259.333 260.667L258.667 260.333z"/>
<path style="fill:#010101; stroke:none;" d="M273.667 260.333L274.333 260.667L273.667 260.333M283 260L284 261L283 260M247 261L247 262C255.671 266.881 271.101 271.298 279 263C267.547 268.089 258.139 265.545 247 261z"/>
<path style="fill:#f0eee8; stroke:none;" d="M248 261L249 262L248 261z"/>
<path style="fill:#010101; stroke:none;" d="M260 261L260 262L264 262L260 261z"/>
<path style="fill:#51393a; stroke:none;" d="M264 261L265 262L264 261z"/>
<path style="fill:#010101; stroke:none;" d="M270 261L270 262L273 262L270 261M281.667 261.333L282.333 261.667L281.667 261.333z"/>
<path style="fill:#f0eee8; stroke:none;" d="M250.667 262.333L251.333 262.667L250.667 262.333z"/>
<path style="fill:#010101; stroke:none;" d="M265 262L265 263L270 263L265 262M279.667 262.333L280.333 262.667L279.667 262.333z"/>
<path style="fill:#f0eee8; stroke:none;" d="M252 263L252 264L255 264L252 263M277 263L278 264L277 263M256 264L257 265L256 264M273 264L273 265L277 265L273 264M259.667 265.333L260.333 265.667L259.667 265.333M270 265L270 266L273 266L270 265M264 266L264 267L267 267L264 266z"/>
<path style="fill:#010101; stroke:none;" d="M290 295L291 296L290 295z"/>
<path style="fill:#51393a; stroke:none;" d="M291 295L291 296L308 296L291 295M284 296L284 297L290 297L284 296M308 296L308 297L330 297L308 296M278 297L278 298L284 298L278 297M330 297L330 298L345 298L330 297M271 298L271 299L278 299L271 298M345 298L345 299L354 299L345 298M265 299L265 300L271 300L265 299M354 299L354 300L357 300L354 299M259 300L259 301L265 301L259 300M357 300L357 301L360 301L357 300z"/>
<path style="fill:#010101; stroke:none;" d="M254 301L255 302L254 301z"/>
<path style="fill:#51393a; stroke:none;" d="M255 301L255 302L259 302L255 301M360 301L360 302L363 302L360 301z"/>
<path style="fill:#010101; stroke:none;" d="M194 302L194 313L195 313L194 302M252 302L253 303L252 302z"/>
<path style="fill:#51393a; stroke:none;" d="M253 302L254 303L253 302M363 302L363 303L366 303L363 302M250.667 303.333L251.333 303.667L250.667 303.333M366 303L367 306L368 306L368 303L366 303z"/>
<path style="fill:#010101; stroke:none;" d="M247 304L248 305L247 304z"/>
<path style="fill:#51393a; stroke:none;" d="M248.667 304.333L249.333 304.667L248.667 304.333z"/>
<path style="fill:#010101; stroke:none;" d="M245 305L246 306L245 305z"/>
<path style="fill:#51393a; stroke:none;" d="M246 305L247 306L246 305M243.667 306.333L244.333 306.667L243.667 306.333z"/>
<path style="fill:#010101; stroke:none;" d="M240 307L241 308L240 307z"/>
<path style="fill:#51393a; stroke:none;" d="M241.667 307.333L242.333 307.667L241.667 307.333M238.667 308.333L239.333 308.667L238.667 308.333M236.667 309.333L237.333 309.667L236.667 309.333z"/>
<path style="fill:#010101; stroke:none;" d="M233 310L234 311L233 310z"/>
<path style="fill:#51393a; stroke:none;" d="M234.667 310.333L235.333 310.667L234.667 310.333M231.667 311.333L232.333 311.667L231.667 311.333z"/>
<path style="fill:#010101; stroke:none;" d="M238 319L238 320C272.802 310.22 307.444 313 343 313C335.646 309.914 324.932 312.308 317 311.961C291.387 310.839 262.542 309.806 238 319M369 311L370 312L369 311z"/>
<path style="fill:#51393a; stroke:none;" d="M229.667 312.333L230.333 312.667L229.667 312.333z"/>
<path style="fill:#f9fcb7; stroke:none;" d="M272 312L273 313L272 312M199 363L200 363L200 360L201 360L200 368L202.833 375L206 398C209.183 398 207.69 400.615 207 403L210.167 411L220 439L227 444L229 450L230 451L232 450C241.118 469.499 263.632 474.796 283 475.791C288.491 476.073 293.49 473.925 299 475C299 471.577 302.557 473.293 305 474C305 470.422 313.157 471.177 316 472L317 313C284.244 310.415 250.097 312.722 221 328.861C215.34 332.001 202.542 336.183 199.067 341.637C196.441 345.761 199.672 357.675 199 363z"/>
<path style="fill:#51393a; stroke:none;" d="M369 312L369 317L370 317L369 312z"/>
<path style="fill:#010101; stroke:none;" d="M195 313L195 324L196 324L195 313z"/>
<path style="fill:#51393a; stroke:none;" d="M226 313L226 314L229 314L226 313z"/>
<path style="fill:#f9fcb7; stroke:none;" d="M266 313L267 314L266 313z"/>
<path style="fill:#010101; stroke:none;" d="M343.667 313.333L344.333 313.667L343.667 313.333z"/>
<path style="fill:#51393a; stroke:none;" d="M224.667 314.333L225.333 314.667L224.667 314.333z"/>
<path style="fill:#f9fcb7; stroke:none;" d="M260 314L261 315L260 314z"/>
<path style="fill:#010101; stroke:none;" d="M345.667 314.333L346.333 314.667L345.667 314.333z"/>
<path style="fill:#51393a; stroke:none;" d="M347 314L348 315L347 314M222.667 315.333L223.333 315.667L222.667 315.333z"/>
<path style="fill:#f9fcb7; stroke:none;" d="M254 315L255 316L254 315z"/>
<path style="fill:#010101; stroke:none;" d="M348 315L349 316L348 315z"/>
<path style="fill:#51393a; stroke:none;" d="M349 315L350 316L349 315M219 316L219 317L222 317L219 316z"/>
<path style="fill:#f9fcb7; stroke:none;" d="M248 316L249 317L248 316z"/>
<path style="fill:#010101; stroke:none;" d="M350 316L351 317L350 316z"/>
<path style="fill:#51393a; stroke:none;" d="M351.667 316.333L352.333 316.667L351.667 316.333M217.667 317.333L218.333 317.667L217.667 317.333z"/>
<path style="fill:#f9fcb7; stroke:none;" d="M242 317L243 318L242 317z"/>
<path style="fill:#51393a; stroke:none;" d="M353.667 317.333L354.333 317.667L353.667 317.333z"/>
<path style="fill:#010101; stroke:none;" d="M370.333 317.667L370.667 318.333L370.333 317.667z"/>
<path style="fill:#51393a; stroke:none;" d="M215.667 318.333L216.333 318.667L215.667 318.333M355 318L355 319L358 319L355 318M212 319L212 320L215 320L212 319M237 319L238 320L237 319M358.667 319.333L359.333 319.667L358.667 319.333M370 319L370 322L371 322L370 319M210.667 320.333L211.333 320.667L210.667 320.333M235 320L236 321L235 320z"/>
<path style="fill:#010101; stroke:none;" d="M236 320L237 321L236 320M360 320L361 321L360 320z"/>
<path style="fill:#51393a; stroke:none;" d="M361.667 320.333L362.333 320.667L361.667 320.333M208.667 321.333L209.333 321.667L208.667 321.333M233 321L234 322L233 321z"/>
<path style="fill:#010101; stroke:none;" d="M234 321L235 322L234 321M363 321L364 322L363 321z"/>
<path style="fill:#51393a; stroke:none;" d="M364 321L365 322L364 321M206.667 322.333L207.333 322.667L206.667 322.333M231 322L232 323L231 322z"/>
<path style="fill:#010101; stroke:none;" d="M232 322L233 323L232 322M365.667 322.333L366.333 322.667L365.667 322.333z"/>
<path style="fill:#51393a; stroke:none;" d="M367 322L368 323L367 322z"/>
<path style="fill:#010101; stroke:none;" d="M371 322L371 328L372 328L371 322z"/>
<path style="fill:#51393a; stroke:none;" d="M204.667 323.333L205.333 323.667L204.667 323.333z"/>
<path style="fill:#010101; stroke:none;" d="M230 323L231 324L230 323M368.667 323.333L369.333 323.667L368.667 323.333M196 324L196 327L197 327L196 324z"/>
<path style="fill:#51393a; stroke:none;" d="M202.667 324.333L203.333 324.667L202.667 324.333z"/>
<path style="fill:#010101; stroke:none;" d="M228.667 324.333L229.333 324.667L228.667 324.333z"/>
<path style="fill:#51393a; stroke:none;" d="M200.667 325.333L201.333 325.667L200.667 325.333z"/>
<path style="fill:#010101; stroke:none;" d="M226.667 325.333L227.333 325.667L226.667 325.333z"/>
<path style="fill:#51393a; stroke:none;" d="M198.667 326.333L199.333 326.667L198.667 326.333z"/>
<path style="fill:#010101; stroke:none;" d="M224.667 326.333L225.333 326.667L224.667 326.333z"/>
<path style="fill:#51393a; stroke:none;" d="M196 327L196 334L197 334L198 327L196 327z"/>
<path style="fill:#010101; stroke:none;" d="M222.667 327.333L223.333 327.667L222.667 327.333M220.667 328.333L221.333 328.667L220.667 328.333M372 328L372 335L373 335L372 328M219 329L220 330L219 329M217.667 330.333L218.333 330.667L217.667 330.333M215.667 331.333L216.333 331.667L215.667 331.333M213.667 332.333L214.333 332.667L213.667 332.333M211.667 333.333L212.333 333.667L211.667 333.333M196.333 334.667L196.667 335.333L196.333 334.667M210 334L211 335L210 334M208.667 335.333L209.333 335.667L208.667 335.333M373 335L373 342L374 342L373 335z"/>
<path style="fill:#51393a; stroke:none;" d="M197 336L197 341L198 341L197 336z"/>
<path style="fill:#010101; stroke:none;" d="M206.667 336.333L207.333 336.667L206.667 336.333M204.667 337.333L205.333 337.667L204.667 337.333M202.667 338.333L203.333 338.667L202.667 338.333M200.667 339.333L201.333 339.667L200.667 339.333M198.667 340.333L199.333 340.667L198.667 340.333M374 342L374 350L375 350L374 342M375 350L375 357L376 357L375 350M353 351L354 373L355 373L353 351z"/>
<path style="fill:#f9fcb7; stroke:none;" d="M198 352L198 355L199 355L198 352z"/>
<path style="fill:#010101; stroke:none;" d="M376 357L376 369L377 369L376 357M200 360L200 367L201 367L200 360z"/>
<path style="fill:#f0eee8; stroke:none;" d="M199 363C199 380.323 202.778 392.67 208 409L209 409L199 363z"/>
<path style="fill:#010101; stroke:none;" d="M201 367L201 373L202 373L201 367M202 373L202 378L203 378L202 373M203 378L203 383L204 383L203 378M353 379C353 408.528 336.739 423.983 321 447C337.004 435.489 361.855 400.103 353 379M204 383L204 388L205 388L204 383M205 388L205 393L206 393L205 388M206 393L206 397L207 397L206 393M207 397L207 402L208 402L207 397M208 402L208 407L209 407L208 402M370 406C367.5 416.808 363.977 432.506 357.914 441.826C351.846 451.157 331.481 465.524 321 469L321 470L338 459.627L358.914 442.826L365.667 424L370 406z"/>
<path style="fill:#f0eee8; stroke:none;" d="M210 416L211 417L210 416M211.333 418.667L211.667 419.333L211.333 418.667M212 421L213 422L212 421M219 437L220 438L219 437z"/>
<path style="fill:#010101; stroke:none;" d="M220 437L221 438L220 437M221 438L224 442L221 438z"/>
<path style="fill:#f0eee8; stroke:none;" d="M220 439L227 447L220 439z"/>
<path style="fill:#010101; stroke:none;" d="M224 442L226 444L224 442M226.333 444.667L226.667 445.333L226.333 444.667M230 449L231 450L230 449M315 470L315 471L321 471L315 470M310 471L310 472L315 472L310 471M304 472L304 473L310 473L304 472M298 473L298 474L304 474L298 473M293 474L293 475L298 475L293 474M273 475L273 476L281 476L273 475M287 475L287 476L293 476L287 475M281 476L281 477L287 477L281 476z"/>
</svg>
