<?xml version="1.0" standalone="yes"?>
<svg xmlns="http://www.w3.org/2000/svg" width="500" height="500">
<path style="fill:#010101; stroke:none;" d="M0 0L0 500L500 500L500 0L0 0z"/>
<path style="fill:#5292c9; stroke:none;" d="M313 12L306 28L309 29L308 35L310 41L313 51L316 51L320 68L321 68L322 60L321 60L321 62L320 62L321 52L320 52L320 54L319 54L320 45C316.269 45 318.255 39.5722 319 37C315.269 37 317.255 31.5722 318 29C314.269 29 316.255 23.5722 317 21C313.269 21 315.255 15.5723 316 13L313 12z"/>
<path style="fill:#7babd5; stroke:none;" d="M171 27L172 34L178 44L178 52L181 53L179 57L184 61L182 64L182 65C185.789 70.6923 189.074 80.2176 188 87C192.548 89.9482 193.982 99.7664 194 105L197 105L199 112L201 117L200 122L237 143L219 177L221 177L220 181L223 185C249.471 174.14 275.501 162.193 302 151.397C307.994 148.954 327.036 144.171 329.307 137.786C331.314 132.145 327.86 121.884 327.155 116C325.236 99.971 323.492 83.8859 320.561 68.0146C319.406 61.7631 316.023 57.6404 316 51L313 51C312.997 47.0129 313.598 43.3323 310 41C311.11 37.9413 311.569 35.7648 308 35L309 29L305 26L288 57C273.555 48.5607 258.669 40.7503 244 32.6944C229.318 24.6314 213.629 15.3581 196 17.2523C187.658 18.1487 178.793 23.9766 171 27M306 25L307 26L306 25z"/>
<path style="fill:#adcbe5; stroke:none;" d="M170 27C138.833 45.9884 104.516 62.4034 75.0278 84.0278C70.1141 87.6311 75.7475 107.874 81 109C80.2281 116.227 83.6092 132.384 90 136L91 140L90 147L93 147L92 151L92 158L97 158L96 162L98 162L96 170L100 170L102 173L100 181C106.478 182.96 104.094 187.763 103 193L108 194L107 196L111 198L109 205L114 206L113 210L154 210L156 96C168.664 103.751 187.201 119.394 202 121L202 120L201 117L199 112L197 105L194 105C194 100.304 192.94 88.0586 188 87C189.557 82.5345 186.446 67.3318 182 65L182 64L184 61L179 57L181 53L178 52L178 44L172 34L170 27z"/>
<path style="fill:#5292c9; stroke:none;" d="M322.333 68.6667L322.667 69.3333L322.333 68.6667M321 70L321 75L322 75L321 70z"/>
<path style="fill:#7babd5; stroke:none;" d="M323 76L323 79L324 79L323 76M324 84L324 87L325 87L324 84z"/>
<path style="fill:#cddfef; stroke:none;" d="M71 86L58.6489 107L55.9853 152L53 210L113 210L114 206L109 205L111 198L107 196L108 194L103 193C104.47 187.904 106.962 182.185 100 181L102 173L100 170L96 170L98 162L96 162L97 158L92 158L92 151L93 147L90 147L91 140L90 136C84.294 131.352 80.5137 116.554 81 109L71 86z"/>
<path style="fill:#7babd5; stroke:none;" d="M325 91L325 95L326 95L325 91M326 99L326 103L327 103L326 99z"/>
<path style="fill:#5292c9; stroke:none;" d="M392 100C381.051 123.424 354 148.53 354 175L357 175C357.048 180.843 357.696 190.582 363 194L364 197L364 198L361 198L361 199L366 204C368.649 203.47 369.607 203.572 369 206L372 205L372 208L375 207L374 209C376.649 208.47 377.607 208.572 377 211C379.649 210.47 380.607 210.572 380 213L383 212L382 214C384.649 213.47 385.607 213.572 385 216C387.649 215.47 388.607 215.572 388 218L391 217L390 219C392.649 218.47 393.607 218.572 393 221C395.649 220.47 396.607 220.572 396 223L399 222L398 224C400.649 223.47 401.607 223.572 401 226C403.649 225.47 404.607 225.572 404 228C406.649 227.47 407.607 227.572 407 230L410 229L409 231C411.649 230.47 412.607 230.572 412 233C414.649 232.47 415.607 232.572 415 235L418 234L418 237L421 236L421 239L424 238L423 240L426 239L426 242L429 241L429 244L432 243L431 245L434 244L433 246L438 247L438 248L416 258C416 261.375 408.131 264.348 405 264C405 267.263 398.967 269.33 396 269L388 275L390 283L390 284L393 285L393 293L394 297L397 297L397 298L397 305C401.327 307.805 402.878 317.942 403 323L406 323L410 343L412 348L420 371L423 371L428 368L433 365L432 363L435 364L434 362L437 363L437 360L440 361L439 359L442 360L445 358L444 356L447 357L450 355L449 353L452 354L455 352L460 349L459 347L470 342L481 330C483.963 316.725 488.48 304.136 489.83 290C492.02 267.087 490 243.024 490 220C490 197.723 492.32 178.524 479.648 159.093C473.927 150.32 459.753 144.056 451 138.576C431.426 126.319 412.871 109.873 392 100z"/>
<path style="fill:#adcbe5; stroke:none;" d="M172 106L173 107L172 106z"/>
<path style="fill:#7babd5; stroke:none;" d="M327 107L327 111L328 111L327 107z"/>
<path style="fill:#adcbe5; stroke:none;" d="M177 109L178 110L177 109M184 113L185 114L184 113z"/>
<path style="fill:#7babd5; stroke:none;" d="M328 115L328 119L329 119L328 115z"/>
<path style="fill:#adcbe5; stroke:none;" d="M189 116L190 117L189 116z"/>
<path style="fill:#cddfef; stroke:none;" d="M56 117L57 118L56 117z"/>
<path style="fill:#adcbe5; stroke:none;" d="M201 123L202 124L201 123z"/>
<path style="fill:#7babd5; stroke:none;" d="M329 123L329 127L330 127L329 123M206 126L207 127L206 126M211 129L212 130L211 129M213 130L214 131L213 130M216 132L217 133L216 132M218 133L219 134L218 133M330.333 133.667L330.667 134.333L330.333 133.667M221 135L222 136L221 135M223 136L224 137L223 136z"/>
<path style="fill:#cddfef; stroke:none;" d="M55 137L56 138L55 137z"/>
<path style="fill:#7babd5; stroke:none;" d="M230 140L231 141L230 140M329 140L330 141L329 140M327 141L328 142L327 141M325 142L326 143L325 142M322 143L323 144L322 143M320 144L321 145L320 144M315 146L316 147L315 146M232 149L233 150L232 149z"/>
<path style="fill:#cddfef; stroke:none;" d="M54 157L55 158L54 157z"/>
<path style="fill:#7babd5; stroke:none;" d="M225 161L226 162L225 161M222 166L223 167L222 166M353 166L341 187L356 195L356 198L364 198L364 197L363 194C358.34 189.476 357.13 181.304 357 175L354 175L353 166M219 171L220 172L219 171M218 173L219 174L218 173z"/>
<path style="fill:#adcbe5; stroke:none;" d="M219 174L220 175L219 174M218 175L210 190L223 185L220 181L221 177L218 175M215 178L216 179L215 178M212 183L213 184L212 183M211 185L212 186L211 185M221 186L222 187L221 186M214 189L215 190L214 189z"/>
<path style="fill:#7babd5; stroke:none;" d="M347 191L348 192L347 191M350 193L351 194L350 193M353 195L354 196L353 195z"/>
<path style="fill:#010101; stroke:none;" d="M356 196L357 197L356 196z"/>
<path style="fill:#7babd5; stroke:none;" d="M358 198L359 199L358 198M362 199L363 200L362 199M361 200L362 201L361 200M363 201L365 203L363 201z"/>
<path style="fill:#010101; stroke:none;" d="M364 201L365 202L364 201M372 206L373 207L372 206M418 235L419 236L418 235z"/>
<path style="fill:#cddfef; stroke:none;" d="M5 314L5 315L58 314C58 332.243 55.6483 355.593 60 373C61.5402 379.161 57.9983 386.995 60 393C61.9093 398.728 66.0681 410.577 70 415C81.0788 427.464 100.862 436.931 115 444C118.907 445.954 128.534 450.862 128 453C130.613 452.477 139.68 456.28 139 459C141.538 458.492 148.674 461.305 148 464C150.613 463.477 159.68 467.28 159 470C161.613 469.477 170.68 473.28 170 476C179.169 476.563 185.831 485.735 194.985 486.768C202.444 487.609 202.289 478.568 195 478L196 471L192 471C191.987 467.806 192.403 465.729 189 465L188 438L183 438L179 434L182 422L175 422L177 408L172 408L172 407L175 406L175 405L171 405L176 401L176 400L158 408L158 355L154 355C156.83 347.258 153.707 323.042 146 319L143 300L138 296L140 290L137 281L132 279L131 270L127 253L122 245L118 242L114 239L110 236C98.5112 238.624 87.1935 251.265 78 258.349C54.0867 276.774 30.6138 298.049 5 314z"/>
<path style="fill:#010101; stroke:none;" d="M421 237L422 238L421 237M426 240L427 241L426 240M429 242L430 243L429 242z"/>
<path style="fill:#7babd5; stroke:none;" d="M330 246C321.033 275.511 320.921 309.524 315.92 340C314.696 347.455 308.44 366.94 312.117 373.61C315.904 380.478 334.945 385.021 342 388.14C370.199 400.607 399.371 417.53 429 426L404 380L420 371L412 348C412.746 345.054 413.197 343.689 410 343L406 323L403 323C403 318.45 401.625 305.991 397 305L397 297L394 297L394 296L393 293C393.856 289.747 393.774 284.457 390 284L390 283L392 282L388 275L387 275L355 293C348.776 278.05 340.318 258.453 330 246z"/>
<path style="fill:#adcbe5; stroke:none;" d="M125 248L126 249L125 248M124 250C128.161 257.68 133.836 270.228 132 279L137 281C136.274 284.714 136.864 287.69 140 290L138 296L143 300L146 319C152.431 328.761 156.765 343.385 154 355L158 355L158 314L212 315L152 269.127L124 250M129 251L130 252L129 251M133 254L134 255L133 254M137 257L138 258L137 257M141 260L142 261L141 260M145 263L146 264L145 263M149 266L150 267L149 266M153 269L154 270L153 269M157 272L158 273L157 272z"/>
<path style="fill:#7babd5; stroke:none;" d="M389 274L390 275L389 274M385 275L386 276L385 275M365 286L366 287L365 286z"/>
<path style="fill:#adcbe5; stroke:none;" d="M258 353L174 399L176 401L171 405L175 405L175 406L172 407L172 408L177 408L175 422L182 422L179 434L183 438L188 438L189 465L192 471L196 471L195 478C200.537 478.883 200.873 481.98 200 487L218 487.61L258 467.309L308 441L279.424 389L258 353M248 357L249 358L248 357z"/>
<path style="fill:#010101; stroke:none;" d="M436 361L437 362L436 361z"/>
<path style="fill:#adcbe5; stroke:none;" d="M228 368L229 369L228 368z"/>
<path style="fill:#7babd5; stroke:none;" d="M415 374L416 375L415 374M410 377L411 378L410 377M354 394L355 395L354 394M363 398L364 399L363 398M372 402L373 403L372 402M374 403L375 404L374 403M379 405L380 406L379 405M381 406L382 407L381 406M419 406L420 407L419 406M383 407L384 408L383 407M420 408L421 409L420 408M388 409L389 410L388 409M390 410L391 411L390 410M392 411L393 412L392 411M394 412L395 413L394 412M397 413L398 414L397 413M399 414L400 415L399 414M401 415L402 416L401 415M424 415L425 416L424 415M403 416L404 417L403 416M406 417L407 418L406 417M425 417L426 418L425 417M408 418L409 419L408 418M413 420L414 421L413 420M415 421L416 422L415 421M429 424L430 425L429 424M430 426L431 427L430 426M304 434L305 435L304 434M305 435L306 436L305 435M306.333 436.667L306.667 437.333L306.333 436.667M307.333 438.667L307.667 439.333L307.333 438.667M308 440L309 441L308 440z"/>
<path style="fill:#adcbe5; stroke:none;" d="M257 468L258 469L257 468M255 469L256 470L255 469M238 478L239 479L238 478M236 479L237 480L236 479z"/>
</svg>
