<?xml version="1.0" standalone="yes"?>
<svg xmlns="http://www.w3.org/2000/svg" width="500" height="500">
<path style="fill:#010101; stroke:none;" d="M0 0L0 500L500 500L500 0L0 0z"/>
<path style="fill:#847d7e; stroke:none;" d="M313 12L312 15L313 12z"/>
<path style="fill:#818181; stroke:none;" d="M53 210L126 210C132.034 210 147.569 212.795 152.397 208.972C156.976 205.346 153.632 188.538 154.285 183C157.614 154.788 156 124.426 156 96C176.432 105.539 195.456 118.908 215 130.128C219.951 132.97 233.995 137.998 235.323 144.093C236.19 148.074 231.14 153.739 229.281 157C223.257 167.566 215.815 177.826 211 189C251.774 177.848 290.55 154.306 330 139C324.757 98.2215 315.113 55.1162 315 14C305.986 18.6192 300.223 35.3545 295.28 44C293.448 47.2037 290.761 54.3464 286.87 55.4151C280.849 57.0693 268.34 46.3626 263 43.6651C241.514 32.8116 222.976 17.9837 198 17.3896C191.84 17.2431 185.487 21.3165 180 23.7161C165.167 30.2027 151.921 37.765 138 46.0995C122.582 55.3305 107.326 64.7994 92 74.1891C84.7897 78.6064 75.1591 82.4338 69.7608 89.0934C54.4635 107.965 56.9644 130.078 55.9606 153C55.1307 171.954 53.0126 191.017 53 210z"/>
<path style="fill:#847d7e; stroke:none;" d="M201.667 16.3333L202.333 16.6667L201.667 16.3333M194 17L195 18L194 17M199 17L200 18L199 17M209 17L210 18L209 17M310 17L311 18L310 17M188 18L189 19L188 18M192 18L193 19L192 18M207 18L208 19L207 18M214.667 19.3333L215.333 19.6667L214.667 19.3333M183 20L184 21L183 20M185 21L186 22L185 21M222 21L223 22L222 21M308 21L309 22L308 21M182 22L183 23L182 22M224 22L225 23L224 22M315 22L316 23L315 22M180 23L181 24L180 23M226 23L227 24L226 23M178 24L179 25L178 24M228 24L229 25L228 24M306 24L307 25L306 24M175 25L176 26L175 25M229 25L230 26L229 25M173 26L174 27L173 26M231 26L232 27L231 26M170 27L171 28L170 27M233 27L234 28L233 27M235 28L236 29L235 28M304 28L305 29L304 28M237 29L238 30L237 29M238.667 30.3333L239.333 30.6667L238.667 30.3333M316 30L317 31L316 30M240 31L241 32L240 31M302 31L303 32L302 31M242 32L243 33L242 32M159 33L160 34L159 33M244 33L245 34L244 33M301 33L302 34L301 33M157 34L158 35L157 34M246 34L247 35L246 34M155 35L156 36L155 35M247.667 35.3333L248.333 35.6667L247.667 35.3333M154 36L155 37L154 36M249 36L250 37L249 36M299 36L300 37L299 36M251 37L252 38L251 37z"/>
<path style="fill:#efe3e4; stroke:none;" d="M150 38L151 39L150 38z"/>
<path style="fill:#847d7e; stroke:none;" d="M151 38L152 39L151 38M253 38L254 39L253 38M298 38L299 39L298 38M317 38L318 39L317 38M149 39L150 40L149 39M254.667 39.3333L255.333 39.6667L254.667 39.3333M147 40L148 41L147 40M256.667 40.3333L257.333 40.6667L256.667 40.3333M297 40L298 41L297 40M258 41L259 42L258 41M144 42L145 43L144 42M260 42L261 43L260 42M262 43L263 44L262 43M295 43L296 44L295 43M139 45L140 46L139 45M266 45L267 46L266 45M294 45L295 46L294 45M137 46L138 47L137 46M267 46L268 47L267 46M318 46L319 47L318 46M269 47L270 48L269 47M293 47L294 48L293 47M271 48L272 49L271 48M132 49L133 50L132 49M273 49L274 50L273 49M275 50L276 51L275 50M291 50L292 51L291 50M277 51L278 52L277 51M278 52L279 53L278 52M280 53L281 54L280 53M124 54L125 55L124 54M282 54L283 55L282 54M289 54L290 55L289 54M319 54L320 55L319 54M283.667 55.3333L284.333 55.6667L283.667 55.3333M286 56L287 57L286 56M119 57L120 58L119 57M116 59L117 60L116 59M114 60L115 61L114 60M320.333 62.6667L320.667 63.3333L320.333 62.6667M109 63L110 64L109 63M106 65L107 66L106 65M320 65L321 66L320 65M104 66L105 67L104 66M101 68L102 69L101 68M99 69L100 70L99 69M321 70L322 71L321 70M96 71L97 72L96 71M94 72L95 73L94 72M93 73L94 74L93 73M91 74L92 75L91 74M321 74L322 75L321 74M89 75L90 76L89 75M88 76L89 77L88 76M86 77L87 78L86 77M83 79L84 80L83 79M322.333 79.6667L322.667 80.3333L322.333 79.6667M81 80L82 81L81 80M78 82L79 83L78 82M76 83L77 84L76 83M322 83L323 84L322 83M73 85L74 86L73 85M71 86L72 87L71 86M70 87L71 88L70 87z"/>
<path style="fill:#5f464f; stroke:none;" d="M324.333 87.6667L324.667 88.3333L324.333 87.6667z"/>
<path style="fill:#847d7e; stroke:none;" d="M69 89L70 90L69 89M67 92L68 93L67 92M65 95L66 96L65 95M324 95L325 96L324 95z"/>
<path style="fill:#5f464f; stroke:none;" d="M325.333 95.6667L325.667 96.3333L325.333 95.6667z"/>
<path style="fill:#847d7e; stroke:none;" d="M157 96L158 97L157 96M64 97L65 98L64 97M159 97L160 98L159 97M324 97L325 98L324 97M162 99L163 100L162 99M62 100L63 101L62 100M164 100L165 101L164 100M324 100L325 101L324 100M392 100L393 101L392 100M166 101L167 102L166 101z"/>
<path style="fill:#818181; stroke:none;" d="M392 101C377.103 128.989 360.629 159.357 342 185L342 186L438 248C417.24 257.693 396.977 270.163 377 281.424C372.531 283.944 360.402 293.591 355.225 291.006C352.025 289.409 350.648 283.935 348.996 281C343.925 271.99 337.918 252.061 329 247L321.275 304L311 374L380 404.309L428 425C424.002 414.164 416.748 404.147 411.231 394C409.361 390.561 404.846 385.249 405.241 381.13C405.798 375.307 423.277 368.286 428 365.579C447.64 354.319 474.036 343.776 484.084 322C493.008 302.661 490 274.749 490 254L490 203C490 195.286 491.63 185.39 489.235 178C480.031 149.6 445.22 135.48 422 120C412.646 113.764 402.752 104.426 392 101z"/>
<path style="fill:#847d7e; stroke:none;" d="M394 101L395 102L394 101M391 102L392 103L391 102M60 103L61 104L60 103z"/>
<path style="fill:#5f464f; stroke:none;" d="M167 103L168 104L167 103z"/>
<path style="fill:#847d7e; stroke:none;" d="M169 103L170 104L169 103M325 103L326 104L325 103z"/>
<path style="fill:#5f464f; stroke:none;" d="M326.333 103.667L326.667 104.333L326.333 103.667z"/>
<path style="fill:#847d7e; stroke:none;" d="M397 103L398 104L397 103M171 104L172 105L171 104M389 105L390 106L389 105M400 105L401 106L400 105M174 106L175 107L174 106M58 107L59 108L58 107M176 107L177 108L176 107M388 107L389 108L388 107M403 107L404 108L403 107M178 108L179 109L178 108M179 109L180 110L179 109M406 109L407 110L406 109M181 110L182 111L181 110M386 110L387 111L386 110M407 110L408 111L407 110M183 111L184 112L183 111M326 111L327 112L326 111M409 111L410 112L409 111M185 112L186 113L185 112M385 112L386 113L385 112M410 112L411 113L410 112M186 113L187 114L186 113M412 113L413 114L412 113M188 114L189 115L188 114M326 114L327 115L326 114M413 114L414 115L413 114M190 115L191 116L190 115M383 115L384 116L383 115M415 115L416 116L415 115M191 116L192 117L191 116M416 116L417 117L416 116z"/>
<path style="fill:#5f464f; stroke:none;" d="M56 117L57 118L56 117z"/>
<path style="fill:#847d7e; stroke:none;" d="M193 117L194 118L193 117M382 117L383 118L382 117M418 117L419 118L418 117M195 118L196 119L195 118M419 118L420 119L419 118M196 119L197 120L196 119M381 119L382 120L381 119M421 119L422 120L421 119M198 120L199 121L198 120M380 120L381 121L380 120M422 120L423 121L422 120M200 121L201 122L200 121M424 121L425 122L424 121M202 122L203 123L202 122M379 122L380 123L379 122M425 122L426 123L425 122M203.667 123.333L204.333 123.667L203.667 123.333M427 123L428 124L427 123M155 124L156 125L155 124z"/>
<path style="fill:#5f464f; stroke:none;" d="M156 124L157 125L156 124z"/>
<path style="fill:#847d7e; stroke:none;" d="M205 124L206 125L205 124M428 124L429 125L428 124M207 125L208 126L207 125M430 125L431 126L430 125M208.667 126.333L209.333 126.667L208.667 126.333M431 126L432 127L431 126M210 127L211 128L210 127M328 127L329 128L328 127M376 127L377 128L376 127M433 127L434 128L433 127M212 128L213 129L212 128M434 128L435 129L434 128M436 129L437 130L436 129z"/>
<path style="fill:#5f464f; stroke:none;" d="M213 130L214 131L213 130z"/>
<path style="fill:#847d7e; stroke:none;" d="M215 130L216 131L215 130M328 130L329 131L328 130M374 130L375 131L374 130M217 131L218 132L217 131M439 131L440 132L439 131M219 132L220 133L219 132M373 132L374 133L373 132z"/>
<path style="fill:#5f464f; stroke:none;" d="M218 133L219 134L218 133z"/>
<path style="fill:#847d7e; stroke:none;" d="M220.667 133.333L221.333 133.667L220.667 133.333M442 133L443 134L442 133M222 134L223 135L222 134M443 134L444 135L443 134M224 135L225 136L224 135M329 135L330 136L329 135M371 135L372 136L371 135M445 135L446 136L445 135M225.667 136.333L226.333 136.667L225.667 136.333M446 136L447 137L446 136z"/>
<path style="fill:#5f464f; stroke:none;" d="M55 137L56 138L55 137z"/>
<path style="fill:#847d7e; stroke:none;" d="M227 137L228 138L227 137M370 137L371 138L370 137M448 137L449 138L448 137M229 138L230 139L229 138M449 138L450 139L449 138M231 139L232 140L231 139M328 139L329 140L328 139M369 139L370 140L369 139M451 139L452 140L451 139M232 140L233 141L232 140M326 140L327 141L326 140M368 140L369 141L368 140M453 140L454 141L453 140M234 141L235 142L234 141M323.667 141.333L324.333 141.667L323.667 141.333M454 141L455 142L454 141M321 142L322 143L321 142M367 142L368 143L367 142M456 142L457 143L456 142M319 143L320 144L319 143M457 143L458 144L457 143M236 144L237 145L236 144M316.667 144.333L317.333 144.667L316.667 144.333M366 144L367 145L366 144M459 144L460 145L459 144M314 145L315 146L314 145M460 145L461 146L460 145M235 146L236 147L235 146M312 146L313 147L312 146M462 146L463 147L462 146M309.667 147.333L310.333 147.667L309.667 147.333M364 147L365 148L364 147M463 147L464 148L463 147M234 148L235 149L234 148M307 148L308 149L307 148M465 148L466 149L465 148z"/>
<path style="fill:#5f464f; stroke:none;" d="M232 149L233 150L232 149z"/>
<path style="fill:#847d7e; stroke:none;" d="M305 149L306 150L305 149M363 149L364 150L363 149M466 149L467 150L466 149M302.667 150.333L303.333 150.667L302.667 150.333M468 150L469 151L468 150M232 151L233 152L232 151M300 151L301 152L300 151M362 151L363 152L362 151M469 151L470 152L469 151M297.667 152.333L298.333 152.667L297.667 152.333M361 152L362 153L361 152M471 152L472 153L471 152M231 153L232 154L231 153M295 153L296 154L295 153M472 153L473 154L472 153M293 154L294 155L293 154M360 154L361 155L360 154M474 154L475 155L474 154M290.667 155.333L291.333 155.667L290.667 155.333M475 155L476 156L475 155M229 156L230 157L229 156M288 156L289 157L288 156M359 156L360 157L359 156M477 156L478 157L477 156z"/>
<path style="fill:#5f464f; stroke:none;" d="M54 157L55 158L54 157z"/>
<path style="fill:#847d7e; stroke:none;" d="M286 157L287 158L286 157M358 157L359 158L358 157M478 157L479 158L478 157M228 158L229 159L228 158M284 158L285 159L284 158M281 159L282 160L281 159M357 159L358 160L357 159M479 159L480 160L479 159M227 160L228 161L227 160M279 160L280 161L279 160z"/>
<path style="fill:#5f464f; stroke:none;" d="M225 161L226 162L225 161z"/>
<path style="fill:#847d7e; stroke:none;" d="M277 161L278 162L277 161M356 161L357 162L356 161M480 161L481 162L480 161M274 162L275 163L274 162M355 162L356 163L355 162M225 163L226 164L225 163M272 163L273 164L272 163M481 163L482 164L481 163M269.667 164.333L270.333 164.667L269.667 164.333M354 164L355 165L354 164M224 165L225 166L224 165M267 165L268 166L267 165M482 165L483 166L482 165z"/>
<path style="fill:#5f464f; stroke:none;" d="M222 166L223 167L222 166z"/>
<path style="fill:#847d7e; stroke:none;" d="M265 166L266 167L265 166M262.667 167.333L263.333 167.667L262.667 167.333M352 167L353 168L352 167M483 167L484 168L483 167M222 168L223 169L222 168M260 168L261 169L260 168z"/>
<path style="fill:#efe3e4; stroke:none;" d="M484 168L485 169L484 168z"/>
<path style="fill:#847d7e; stroke:none;" d="M258 169L259 170L258 169M351 169L352 170L351 169M484 169L485 170L484 169M221 170L222 171L221 170M255.667 170.333L256.333 170.667L255.667 170.333M485 170L486 171L485 170z"/>
<path style="fill:#5f464f; stroke:none;" d="M219 171L220 172L219 171z"/>
<path style="fill:#847d7e; stroke:none;" d="M253 171L254 172L253 171M350 171L351 172L350 171M251 172L252 173L251 172M349 172L350 173L349 172M486 172L487 173L486 172z"/>
<path style="fill:#5f464f; stroke:none;" d="M218 173L219 174L218 173z"/>
<path style="fill:#847d7e; stroke:none;" d="M249 173L250 174L249 173M246 174L247 175L246 174M348 174L349 175L348 174M218 175L219 176L218 175M243.667 175.333L244.333 175.667L243.667 175.333M241.667 176.333L242.333 176.667L241.667 176.333M347 176L348 177L347 176M488 176L489 177L488 176M217 177L218 178L217 177M239 177L240 178L239 177M346.333 177.667L346.667 178.333L346.333 177.667z"/>
<path style="fill:#5f464f; stroke:none;" d="M215 178L216 179L215 178z"/>
<path style="fill:#847d7e; stroke:none;" d="M236.667 178.333L237.333 178.667L236.667 178.333M234 179L235 180L234 179M345 179L346 180L345 179M215 180L216 181L215 180M231.667 180.333L232.333 180.667L231.667 180.333M154 181L155 182L154 181M229.667 181.333L230.333 181.667L229.667 181.333M344 181L345 182L344 181M214 182L215 183L214 182M226.667 182.333L227.333 182.667L226.667 182.333M343.333 182.667L343.667 183.333L343.333 182.667z"/>
<path style="fill:#5f464f; stroke:none;" d="M212 183L213 184L212 183z"/>
<path style="fill:#847d7e; stroke:none;" d="M224.667 183.333L225.333 183.667L224.667 183.333M222.667 184.333L223.333 184.667L222.667 184.333M342 184L343 185L342 184z"/>
<path style="fill:#5f464f; stroke:none;" d="M211 185L212 186L211 185z"/>
<path style="fill:#847d7e; stroke:none;" d="M220 185L221 186L220 185M218 186L219 187L218 186M341.667 186.333L342.333 186.667L341.667 186.333M211 187L212 188L211 187M215.667 187.333L216.333 187.667L215.667 187.333M343 187L344 188L343 187M213 188L214 189L213 188M344 188L345 189L344 188M210.667 189.333L211.333 189.667L210.667 189.333M346 189L347 190L346 189M348 190L349 191L348 190M349 191L350 192L349 191M351 192L352 193L351 192M352 193L353 194L352 193M354 194L355 195L354 194z"/>
<path style="fill:#5f464f; stroke:none;" d="M355 196L356 197L355 196z"/>
<path style="fill:#847d7e; stroke:none;" d="M357 196L358 197L357 196z"/>
<path style="fill:#5f464f; stroke:none;" d="M358 198L359 199L358 198z"/>
<path style="fill:#847d7e; stroke:none;" d="M360 198L361 199L360 198M362 199L363 200L362 199M53 200L54 201L53 200z"/>
<path style="fill:#5f464f; stroke:none;" d="M361 200L362 201L361 200M363 201L364 202L363 201z"/>
<path style="fill:#847d7e; stroke:none;" d="M365 201L366 202L365 201z"/>
<path style="fill:#5f464f; stroke:none;" d="M366 203L367 204L366 203z"/>
<path style="fill:#847d7e; stroke:none;" d="M368 203L369 204L368 203M370 204L371 205L370 204z"/>
<path style="fill:#5f464f; stroke:none;" d="M369 205L370 206L369 205M371 206L372 207L371 206z"/>
<path style="fill:#847d7e; stroke:none;" d="M373 206L374 207L373 206z"/>
<path style="fill:#5f464f; stroke:none;" d="M374 208L375 209L374 208z"/>
<path style="fill:#847d7e; stroke:none;" d="M376 208L377 209L376 208M88 209L88 210L95 210L88 209M153 209L154 210L153 209M378 209L379 210L378 209M379 210L380 211L379 210M381 211L382 212L381 211z"/>
<path style="fill:#5f464f; stroke:none;" d="M382 213L383 214L382 213z"/>
<path style="fill:#847d7e; stroke:none;" d="M384 213L385 214L384 213M386 214L387 215L386 214M387.667 215.333L388.333 215.667L387.667 215.333M389 216L390 217L389 216M391 217L392 218L391 217z"/>
<path style="fill:#5f464f; stroke:none;" d="M390 218L391 219L390 218z"/>
<path style="fill:#847d7e; stroke:none;" d="M392.667 218.333L393.333 218.667L392.667 218.333M394 219L395 220L394 219M395.667 220.333L396.333 220.667L395.667 220.333M397 221L398 222L397 221M399 222L400 223L399 222z"/>
<path style="fill:#5f464f; stroke:none;" d="M398 223L399 224L398 223z"/>
<path style="fill:#847d7e; stroke:none;" d="M400.667 223.333L401.333 223.667L400.667 223.333M402 224L403 225L402 224M403.667 225.333L404.333 225.667L403.667 225.333M405 226L406 227L405 226M406 227L407 228L406 227M408.667 228.333L409.333 228.667L408.667 228.333M410 229L411 230L410 229z"/>
<path style="fill:#5f464f; stroke:none;" d="M409 230L410 231L409 230z"/>
<path style="fill:#847d7e; stroke:none;" d="M411 230L412 231L411 230M413 231L414 232L413 231z"/>
<path style="fill:#5f464f; stroke:none;" d="M412 232L413 233L412 232z"/>
<path style="fill:#847d7e; stroke:none;" d="M414.667 232.333L415.333 232.667L414.667 232.333M416 233L417 234L416 233z"/>
<path style="fill:#5f464f; stroke:none;" d="M415 234L416 235L415 234z"/>
<path style="fill:#847d7e; stroke:none;" d="M418 234L419 235L418 234z"/>
<path style="fill:#5f464f; stroke:none;" d="M417 235L418 236L417 235z"/>
<path style="fill:#847d7e; stroke:none;" d="M419 235L420 236L419 235M106 237L106 238L109 238L106 237M421 236L422 237L421 236z"/>
<path style="fill:#818181; stroke:none;" d="M7 315L58 314C58 333.93 58.5499 354.131 59.9105 374C60.8677 387.978 61.2655 400.762 69.9691 412.826C77.5089 423.277 93.8514 432.179 105 438.306C126.293 450.006 147.488 461.972 169 473.255C183.896 481.069 196.429 489.09 214 487.945C229.71 486.922 249.006 471.262 263 464.247C273.461 459.003 283.597 453.107 294 447.742C297.269 446.055 304.231 443.805 306.169 440.582C308.632 436.487 299.289 424.748 297.149 421C287.604 404.279 278.046 387.542 268.201 371C265.835 367.025 262.208 355.729 256.907 355.241C249.318 354.542 235.539 365.889 229 369.576C205.671 382.728 182.195 396.535 158 408L158 314L210 315C205.782 307.29 193.999 301.774 187 296.525C168.956 282.992 150.917 269.463 133 255.765C127.144 251.288 114.653 237.688 107 238.083C99.3383 238.478 87.9214 251.347 82 256C64.4729 269.773 46.5426 283.034 29 296.79C22.2808 302.059 11.1069 307.489 7 315z"/>
<path style="fill:#5f464f; stroke:none;" d="M420 237L421 238L420 237z"/>
<path style="fill:#847d7e; stroke:none;" d="M422.667 237.333L423.333 237.667L422.667 237.333M104 238L105 239L104 238M110 238L111 239L110 238M424 238L425 239L424 238M111 239L112 240L111 239z"/>
<path style="fill:#5f464f; stroke:none;" d="M423 239L424 240L423 239z"/>
<path style="fill:#847d7e; stroke:none;" d="M112 240L113 241L112 240z"/>
<path style="fill:#5f464f; stroke:none;" d="M425 240L427 242L425 240z"/>
<path style="fill:#010101; stroke:none;" d="M426 240L427 241L426 240z"/>
<path style="fill:#847d7e; stroke:none;" d="M427 240L428 241L427 240M100 241L101 242L100 241M114 241L115 242L114 241M99 242L100 243L99 242M115 242L116 243L115 242z"/>
<path style="fill:#5f464f; stroke:none;" d="M428 242L429 243L428 242z"/>
<path style="fill:#847d7e; stroke:none;" d="M430 242L431 243L430 242M98 243L99 244L98 243M116 243L117 244L116 243M432 243L433 244L432 243M96 244L97 245L96 244M118 244L119 245L118 244M331 244L330 247L331 244M95 245L96 246L95 245M119 245L120 246L119 245M328 245L329 246L328 245z"/>
<path style="fill:#5f464f; stroke:none;" d="M433 245L434 246L433 245z"/>
<path style="fill:#847d7e; stroke:none;" d="M435 245L436 246L435 245M94 246L95 247L94 246M120 246L121 247L120 246z"/>
<path style="fill:#010101; stroke:none;" d="M331 246L332 250L333 250L331 246z"/>
<path style="fill:#5f464f; stroke:none;" d="M332 246L333 247L332 246z"/>
<path style="fill:#847d7e; stroke:none;" d="M122 247L123 248L122 247M332 247L333 248L332 247M435.667 247.333L436.333 247.667L435.667 247.333z"/>
<path style="fill:#010101; stroke:none;" d="M437 247L438 248L437 247z"/>
<path style="fill:#847d7e; stroke:none;" d="M91 248L92 249L91 248M123 248L124 249L123 248z"/>
<path style="fill:#5f464f; stroke:none;" d="M333 248L334 249L333 248z"/>
<path style="fill:#847d7e; stroke:none;" d="M90 249L91 250L90 249M124 249L125 250L124 249M333 249L334 250L333 249M89 250L90 251L89 250M126 250L127 251L126 250M433 250L434 251L433 250M87 251L88 252L87 251M127 251L128 252L127 251M431 251L432 252L431 251M86 252L87 253L86 252M128 252L129 253L128 252M429 252L430 253L429 252M85 253L86 254L85 253M130 253L131 254L130 253M427 253L428 254L427 253M83 254L84 255L83 254M131 254L132 255L131 254M328 254L329 255L328 254M426 254L427 255L426 254M82 255L83 256L82 255M132 255L133 256L132 255M424 255L425 256L424 255M81 256L82 257L81 256M133.667 256.333L134.333 256.667L133.667 256.333M422 256L423 257L422 256M80 257L81 258L80 257M135 257L136 258L135 257M420 257L421 258L420 257M78 258L79 259L78 258M136 258L137 259L136 258M336 258L337 259L336 258M418 258L419 259L418 258M77 259L78 260L77 259M138 259L139 260L138 259z"/>
<path style="fill:#5f464f; stroke:none;" d="M326 259L327 260L326 259z"/>
<path style="fill:#847d7e; stroke:none;" d="M417 259L418 260L417 259M76 260L77 261L76 260M139 260L140 261L139 260M415 260L416 261L415 260M74 261L75 262L74 261M140 261L141 262L140 261M327 261L328 262L327 261M338 261L339 262L338 261M413 261L414 262L413 261M73 262L74 263L73 262M141.667 262.333L142.333 262.667L141.667 262.333M411 262L412 263L411 262M72 263L73 264L72 263M143 263L144 264L143 263M339 263L340 264L339 263M409.667 263.333L410.333 263.667L409.667 263.333M70 264L71 265L70 264M144 264L145 265L144 264M407.667 264.333L408.333 264.667L407.667 264.333M69 265L70 266L69 265M146 265L147 266L146 265M325 265L325 268L326 268L325 265M340 265L341 266L340 265M406 265L407 266L406 265M68 266L69 267L68 266M147 266L148 267L147 266M404 266L405 267L404 266M148 267L149 268L148 267M341 267L342 268L341 267M402 267L403 268L402 267M65 268L66 269L65 268M150 268L151 269L150 268M326 268L327 269L326 268M400 268L401 269L400 268M64 269L65 270L64 269M151 269L152 270L151 269M342 269L343 270L342 269M398 269L399 270L398 269M63 270L64 271L63 270M152 270L153 271L152 270M397 270L398 271L397 270M61 271L62 272L61 271M154 271L155 272L154 271M343 271L344 272L343 271M395 271L396 272L395 271M60 272L61 273L60 272M155 272L156 273L155 272M324.333 272.667L324.667 273.333L324.333 272.667M393 272L394 273L393 272M59 273L60 274L59 273M156 273L157 274L156 273M344 273L345 274L344 273M391 273L392 274L391 273M57 274L58 275L57 274M157 274L159 276L157 274z"/>
<path style="fill:#efe3e4; stroke:none;" d="M158 274L159 275L158 274z"/>
<path style="fill:#847d7e; stroke:none;" d="M389 274L390 275L389 274M56 275L57 276L56 275z"/>
<path style="fill:#efe3e4; stroke:none;" d="M159 275L160 276L159 275z"/>
<path style="fill:#847d7e; stroke:none;" d="M325 275L326 276L325 275M387.667 275.333L388.333 275.667L387.667 275.333M55 276L56 277L55 276M160 276L161 277L160 276M346 276L347 277L346 276M386 276L387 277L386 276M54 277L55 278L54 277M161 277L162 278L161 277M384 277L385 278L384 277M52 278L53 279L52 278M162 278L163 279L162 278z"/>
<path style="fill:#efe3e4; stroke:none;" d="M163 278L164 279L163 278z"/>
<path style="fill:#847d7e; stroke:none;" d="M347 278L348 279L347 278M382 278L383 279L382 278M51 279L52 280L51 279M164 279L165 280L164 279M323 279L324 280L323 279M380 279L381 280L380 279M50 280L51 281L50 280M165 280L166 281L165 280M348 280L349 281L348 280M378 280L379 281L378 280M48 281L49 282L48 281M166 281L167 282L166 281z"/>
<path style="fill:#efe3e4; stroke:none;" d="M167 281L168 282L167 281z"/>
<path style="fill:#847d7e; stroke:none;" d="M324.333 281.667L324.667 282.333L324.333 281.667M376 281L377 282L376 281M47 282L48 283L47 282M168 282L169 283L168 282M375 282L376 283L375 282M46 283L47 284L46 283M169 283L170 284L169 283M373 283L374 284L373 283M44 284L45 285L44 284M171 284L172 285L171 284M371 284L372 285L371 284M43 285L44 286L43 285M172 285L173 286L172 285M369 285L370 286L369 285M42 286L43 287L42 286M173 286L174 287L173 286M367 286L368 287L367 286M175 287L176 288L175 287M366 287L367 288L366 287M39 288L40 289L39 288M176 288L177 289L176 288M323.333 288.667L323.667 289.333L323.333 288.667M352 288L353 289L352 288M364 288L365 289L364 288M38 289L39 290L38 289M177 289L178 290L177 289M362 289L363 290L362 289M37 290L38 291L37 290M179 290L180 291L179 290M353 290L354 291L353 290z"/>
<path style="fill:#5f464f; stroke:none;" d="M355 290L356 291L355 290z"/>
<path style="fill:#847d7e; stroke:none;" d="M360 290L361 291L360 290M35 291L36 292L35 291M180 291L181 292L180 291M358 291L359 292L358 291M489 291L490 292L489 291M34 292L35 293L34 292M181 292L182 293L181 292M356 292L357 293L356 292M33 293L34 294L33 293M183 293L184 294L183 293M31 294L32 295L31 294M184 294L185 295L184 294M30 295L31 296L30 295M185 295L186 296L185 295M322 295L322 298L323 298L322 295M29 296L30 297L29 296M186.667 296.333L187.333 296.667L186.667 296.333M488 296L488 299L489 299L488 296M28 297L29 298L28 297M188 297L189 298L188 297M26 298L27 299L26 298M189 298L190 299L189 298M25 299L26 300L25 299M191 299L192 300L191 299M24 300L25 301L24 300M192 300L193 301L192 300M22 301L23 302L22 301M193 301L194 302L193 301M21 302L22 303L21 302M195 302L196 303L195 302z"/>
<path style="fill:#5f464f; stroke:none;" d="M320 302L321 303L320 302z"/>
<path style="fill:#847d7e; stroke:none;" d="M321 302L322 303L321 302M20 303L21 304L20 303M196 303L197 304L196 303M487.333 303.667L487.667 304.333L487.333 303.667M18.6667 304.333L19.3333 304.667L18.6667 304.333M197 304L198 305L197 304M17 305L18 306L17 305M199 305L200 306L199 305M16 306L17 307L16 306M200 306L201 307L200 306M201 307L202 308L201 307M13 308L14 309L13 308M203 308L204 309L203 308M12 309L13 310L12 309M204 309L205 310L204 309z"/>
<path style="fill:#5f464f; stroke:none;" d="M319.333 309.667L319.667 310.333L319.333 309.667z"/>
<path style="fill:#847d7e; stroke:none;" d="M320 309L321 310L320 309M9 311L10 312L9 311M207 311L208 312L207 311M486 311L487 312L486 311M320 312L321 313L320 312M34 313L34 314L37 314L34 313M44 313L45 314L44 313M5.66667 314.333L6.33333 314.667L5.66667 314.333M27 314L27 315L30 315L27 314M186.667 314.333L187.333 314.667L186.667 314.333M210.667 314.333L211.333 314.667L210.667 314.333M184 315L185 316L184 315M485 318L486 319L485 318M484.333 321.667L484.667 322.333L484.333 321.667M318 323L319 324L318 323M483 323L484 324L483 323M482 325L483 326L482 325M318 326L319 327L318 326M481 326L482 327L481 326M480 327L481 328L480 327z"/>
<path style="fill:#5f464f; stroke:none;" d="M316 330L317 331L316 330z"/>
<path style="fill:#847d7e; stroke:none;" d="M317 330L318 331L317 330M478 330L479 331L478 330M477 331L478 332L477 331M58 333L59 334L58 333M475 334L476 335L475 334M474 335L475 336L474 335M473 336L474 337L473 336z"/>
<path style="fill:#5f464f; stroke:none;" d="M315 337L316 338L315 337z"/>
<path style="fill:#847d7e; stroke:none;" d="M316 337L317 338L316 337M472 337L473 338L472 337M316 339L317 340L316 339M471 339L472 340L471 339M470 340L471 341L470 340M468.667 341.333L469.333 341.667L468.667 341.333M467 342L468 343L467 342z"/>
<path style="fill:#5f464f; stroke:none;" d="M314 343L315 344L314 343z"/>
<path style="fill:#847d7e; stroke:none;" d="M315 343L316 344L315 343M465 343L466 344L465 343M463.667 344.333L464.333 344.667L463.667 344.333M315 345L316 346L315 345M462 345L463 346L462 345M460 346L461 347L460 346M458 347L459 348L458 347M456.667 348.333L457.333 348.667L456.667 348.333M455 349L456 350L455 349M314 350L314 353L315 353L314 350M453 350L454 351L453 350M452 351L453 352L452 351M450 352L451 353L450 352M258.333 353.667L258.667 354.333L258.333 353.667M448 353L449 354L448 353M256 354L257 355L256 354M447 354L448 355L447 354M254 355L255 356L254 355M259 355L260 356L259 355M445 355L446 356L445 355M252 356L253 357L252 356M443 356L444 357L443 356M250 357L251 358L250 357M260 357L261 358L260 357M313 357L314 358L313 357M442 357L443 358L442 357M440 358L441 359L440 358M247 359L248 360L247 359M313 359L314 360L313 359M438 359L439 360L438 359M245 360L246 361L245 360M262 360L263 361L262 360M436 360L437 361L436 360M243 361L244 362L243 361M435 361L436 362L435 361M241 362L242 363L241 362M263 362L264 363L263 362M433 362L434 363L433 362M239 363L240 364L239 363M431 363L432 364L431 363M238 364L239 365L238 364M264 364L265 365L264 364M312 364L313 365L312 364M429.667 364.333L430.333 364.667L429.667 364.333M236 365L237 366L236 365z"/>
<path style="fill:#efe3e4; stroke:none;" d="M265 365L266 366L265 365z"/>
<path style="fill:#847d7e; stroke:none;" d="M428 365L429 366L428 365M234 366L235 367L234 366M265 366L266 367L265 366M426 366L427 367L426 366M232 367L233 368L232 367z"/>
<path style="fill:#efe3e4; stroke:none;" d="M266 367L267 368L266 367z"/>
<path style="fill:#847d7e; stroke:none;" d="M424.667 367.333L425.333 367.667L424.667 367.333M230 368L231 369L230 368M266 368L267 369L266 368M422.667 368.333L423.333 368.667L422.667 368.333M229 369L230 370L229 369M267 369L268 370L267 369M421 369L422 370L421 369M59.3333 370.667L59.6667 371.333L59.3333 370.667M227 370L228 371L227 370M419.667 370.333L420.333 370.667L419.667 370.333M225 371L226 372L225 371M268 371L269 372L268 371M311 371L312 372L311 371M417.667 371.333L418.333 371.667L417.667 371.333M223 372L224 373L223 372z"/>
<path style="fill:#efe3e4; stroke:none;" d="M269 372L270 373L269 372z"/>
<path style="fill:#847d7e; stroke:none;" d="M416 372L417 373L416 372M221 373L222 374L221 373M269 373L270 374L269 373z"/>
<path style="fill:#5f464f; stroke:none;" d="M310 373L311 374L310 373z"/>
<path style="fill:#847d7e; stroke:none;" d="M414 373L415 374L414 373M219 374L220 375L219 374z"/>
<path style="fill:#efe3e4; stroke:none;" d="M270 374L271 375L270 374z"/>
<path style="fill:#847d7e; stroke:none;" d="M412.667 374.333L413.333 374.667L412.667 374.333M218 375L219 376L218 375M314 375L315 376L314 375M411 375L412 376L411 375M216 376L217 377L216 376M271 376L272 377L271 376M316 376L317 377L316 376M409 376L410 377L409 376M214 377L215 378L214 377M318.667 377.333L319.333 377.667L318.667 377.333M408 377L409 378L408 377M212 378L213 379L212 378M272 378L273 379L272 378M321 378L322 379L321 378M405.667 378.333L406.333 378.667L405.667 378.333M210 379L211 380L210 379z"/>
<path style="fill:#efe3e4; stroke:none;" d="M273 379L274 380L273 379z"/>
<path style="fill:#847d7e; stroke:none;" d="M323 379L324 380L323 379M404 379L405 380L404 379M209 380L210 381L209 380M273 380L274 381L273 380M325 380L326 381L325 380M207 381L208 382L207 381z"/>
<path style="fill:#efe3e4; stroke:none;" d="M274 381L275 382L274 381z"/>
<path style="fill:#847d7e; stroke:none;" d="M327.667 381.333L328.333 381.667L327.667 381.333M404 381L405 382L404 381M205 382L206 383L205 382M274 382L275 383L274 382M330 382L331 383L330 382M203 383L204 384L203 383M275 383L276 384L275 383M332 383L333 384L332 383M405 383L406 384L405 383M201 384L202 385L201 384z"/>
<path style="fill:#efe3e4; stroke:none;" d="M276 384L277 385L276 384z"/>
<path style="fill:#847d7e; stroke:none;" d="M334.667 384.333L335.333 384.667L334.667 384.333M199 385L200 386L199 385M276 385L277 386L276 385M337 385L338 386L337 385M406 385L407 386L406 385M198 386L199 387L198 386z"/>
<path style="fill:#efe3e4; stroke:none;" d="M277 386L278 387L277 386z"/>
<path style="fill:#847d7e; stroke:none;" d="M339 386L340 387L339 386M196 387L197 388L196 387M341 387L342 388L341 387M407 387L408 388L407 387M194 388L195 389L194 388z"/>
<path style="fill:#efe3e4; stroke:none;" d="M278 388L279 389L278 388z"/>
<path style="fill:#847d7e; stroke:none;" d="M343.667 388.333L344.333 388.667L343.667 388.333M192 389L193 390L192 389M346 389L347 390L346 389M408 389L409 390L408 389M190 390L191 391L190 390M279 390L280 391L279 390M348 390L349 391L348 390M409 390L410 391L409 390M189 391L190 392L189 391z"/>
<path style="fill:#efe3e4; stroke:none;" d="M280 391L281 392L280 391z"/>
<path style="fill:#847d7e; stroke:none;" d="M350 391L351 392L350 391M60 392L61 393L60 392M187 392L188 393L187 392M280 392L281 393L280 392M352.667 392.333L353.333 392.667L352.667 392.333M410 392L411 393L410 392M185 393L186 394L185 393z"/>
<path style="fill:#efe3e4; stroke:none;" d="M281 393L282 394L281 393z"/>
<path style="fill:#847d7e; stroke:none;" d="M355 393L356 394L355 393M61 394L62 395L61 394M183 394L184 395L183 394M357 394L358 395L357 394M411 394L412 395L411 394M181 395L182 396L181 395z"/>
<path style="fill:#efe3e4; stroke:none;" d="M282 395L283 396L282 395z"/>
<path style="fill:#847d7e; stroke:none;" d="M359.667 395.333L360.333 395.667L359.667 395.333M62 396L63 397L62 396M179 396L180 397L179 396z"/>
<path style="fill:#efe3e4; stroke:none;" d="M283 396L284 397L283 396z"/>
<path style="fill:#847d7e; stroke:none;" d="M361.667 396.333L362.333 396.667L361.667 396.333M412 396L413 397L412 396M61 397L62 398L61 397M178 397L179 398L178 397M283 397L284 398L283 397M364 397L365 398L364 397M176 398L177 399L176 398z"/>
<path style="fill:#efe3e4; stroke:none;" d="M284 398L285 399L284 398z"/>
<path style="fill:#847d7e; stroke:none;" d="M366 398L367 399L366 398M413 398L414 399L413 398M63 399L64 400L63 399M174 399L175 400L174 399M368.667 399.333L369.333 399.667L368.667 399.333M414 399L415 400L414 399M172 400L173 401L172 400z"/>
<path style="fill:#efe3e4; stroke:none;" d="M285 400L286 401L285 400z"/>
<path style="fill:#847d7e; stroke:none;" d="M370.667 400.333L371.333 400.667L370.667 400.333M64 401L65 402L64 401M170 401L171 402L170 401M373 401L374 402L373 401M415 401L416 402L415 401M169 402L170 403L169 402z"/>
<path style="fill:#efe3e4; stroke:none;" d="M286 402L287 403L286 402z"/>
<path style="fill:#847d7e; stroke:none;" d="M375 402L376 403L375 402M65 403L66 404L65 403M167 403L168 404L167 403z"/>
<path style="fill:#efe3e4; stroke:none;" d="M287 403L288 404L287 403z"/>
<path style="fill:#847d7e; stroke:none;" d="M377.667 403.333L378.333 403.667L377.667 403.333M416 403L417 404L416 403M165 404L166 405L165 404M287 404L288 405L287 404M380 404L381 405L380 404M66 405L67 406L66 405M163 405L164 406L163 405z"/>
<path style="fill:#efe3e4; stroke:none;" d="M288 405L289 406L288 405z"/>
<path style="fill:#847d7e; stroke:none;" d="M382 405L383 406L382 405M417 405L418 406L417 405M161 406L162 407L161 406M288 406L289 407L288 406M384 406L385 407L384 406z"/>
<path style="fill:#efe3e4; stroke:none;" d="M289 407L290 408L289 407z"/>
<path style="fill:#847d7e; stroke:none;" d="M386 407L387 408L386 407M418 407L419 408L418 407M67 408L68 409L67 408M389 408L390 409L389 408M290 409L291 410L290 409z"/>
<path style="fill:#5f464f; stroke:none;" d="M388 409L389 410L388 409z"/>
<path style="fill:#847d7e; stroke:none;" d="M391 409L392 410L391 409M68 410L69 411L68 410z"/>
<path style="fill:#efe3e4; stroke:none;" d="M291 410L292 411L291 410z"/>
<path style="fill:#847d7e; stroke:none;" d="M393 410L394 411L393 410M420 410L421 411L420 410M291 411L292 412L291 411M395.667 411.333L396.333 411.667L395.667 411.333M69 412L70 413L69 412z"/>
<path style="fill:#efe3e4; stroke:none;" d="M292 412L293 413L292 412z"/>
<path style="fill:#847d7e; stroke:none;" d="M398 412L399 413L398 412M421 412L422 413L421 412M292 413L293 414L292 413z"/>
<path style="fill:#5f464f; stroke:none;" d="M397 413L398 414L397 413z"/>
<path style="fill:#847d7e; stroke:none;" d="M400 413L401 414L400 413M70 414L71 415L70 414M293 414L294 415L293 414M402 414L403 415L402 414M422 414L423 415L422 414M72 415L73 416L72 415z"/>
<path style="fill:#efe3e4; stroke:none;" d="M294 415L295 416L294 415z"/>
<path style="fill:#847d7e; stroke:none;" d="M404.667 415.333L405.333 415.667L404.667 415.333M73 416L74 417L73 416M294 416L295 417L294 416M407 416L408 417L407 416M74 417L75 418L74 417z"/>
<path style="fill:#efe3e4; stroke:none;" d="M295 417L296 418L295 417z"/>
<path style="fill:#5f464f; stroke:none;" d="M406 417L407 418L406 417z"/>
<path style="fill:#847d7e; stroke:none;" d="M409 417L410 418L409 417M76 418L77 419L76 418M295 418L296 419L295 418M411.667 418.333L412.333 418.667L411.667 418.333M77 419L78 420L77 419M296 419L297 420L296 419M414 419L415 420L414 419M425 419L426 420L425 419M78 420L79 421L78 420M416 420L417 421L416 420M80 421L81 422L80 421M297 421L298 422L297 421M418 421L419 422L418 421M81 422L82 423L81 422z"/>
<path style="fill:#efe3e4; stroke:none;" d="M298 422L299 423L298 422z"/>
<path style="fill:#847d7e; stroke:none;" d="M420.667 422.333L421.333 422.667L420.667 422.333M82 423L83 424L82 423M298 423L299 424L298 423M423 423L424 424L423 423M427 423L428 424L427 423M84 424L85 425L84 424z"/>
<path style="fill:#efe3e4; stroke:none;" d="M299 424L300 425L299 424z"/>
<path style="fill:#847d7e; stroke:none;" d="M425 424L426 425L425 424M429 424L430 425L429 424M85 425L86 426L85 425M299 425L300 426L299 425M427.667 425.333L428.333 425.667L427.667 425.333M430 425L431 426L430 425M86 426L87 427L86 426M300 426L301 427L300 426M88 427L89 428L88 427M89 428L90 429L89 428M301 428L303 431L301 428M90 429L91 430L90 429z"/>
<path style="fill:#efe3e4; stroke:none;" d="M302 429L303 430L302 429z"/>
<path style="fill:#847d7e; stroke:none;" d="M92 430L93 431L92 430M93 431L94 432L93 431M303 431L304 432L303 431M94.6667 432.333L95.3333 432.667L94.6667 432.333M96 433L97 434L96 433M304 433L306 436L304 433M97.6667 434.333L98.3333 434.667L97.6667 434.333z"/>
<path style="fill:#efe3e4; stroke:none;" d="M305 434L306 435L305 434z"/>
<path style="fill:#847d7e; stroke:none;" d="M99 435L100 436L99 435M101 436L102 437L101 436M306 436L307 437L306 436M103 437L104 438L103 437M105 438L106 439L105 438M307 438L308 439L307 438M107 439L108 440L107 439M108 440L109 441L108 440M307.667 440.333L308.333 440.667L307.667 440.333M110 441L111 442L110 441M306 441L307 442L306 441M112 442L113 443L112 442M304 442L305 443L304 442M114 443L115 444L114 443M301.667 443.333L302.333 443.667L301.667 443.333M116 444L117 445L116 444M299.667 444.333L300.333 444.667L299.667 444.333M118 445L119 446L118 445M298 445L299 446L298 445M119 446L120 447L119 446M296 446L297 447L296 446M121 447L122 448L121 447M294 447L295 448L294 447M123 448L124 449L123 448M292 448L293 449L292 448M125 449L126 450L125 449M290 449L291 450L290 449M127 450L128 451L127 450M288 450L289 451L288 450z"/>
<path style="fill:#efe3e4; stroke:none;" d="M289 450L290 451L289 450z"/>
<path style="fill:#847d7e; stroke:none;" d="M286 451L287 452L286 451z"/>
<path style="fill:#efe3e4; stroke:none;" d="M287 451L288 452L287 451z"/>
<path style="fill:#847d7e; stroke:none;" d="M130 452L131 453L130 452M284 452L285 453L284 452z"/>
<path style="fill:#efe3e4; stroke:none;" d="M285 452L286 453L285 452z"/>
<path style="fill:#847d7e; stroke:none;" d="M132 453L133 454L132 453M282 453L283 454L282 453z"/>
<path style="fill:#efe3e4; stroke:none;" d="M283 453L284 454L283 453z"/>
<path style="fill:#847d7e; stroke:none;" d="M134 454L135 455L134 454M281 454L282 455L281 454M136 455L137 456L136 455M279 455L280 456L279 455M138 456L139 457L138 456M277 456L278 457L277 456M140 457L141 458L140 457M275 457L276 458L275 457M141 458L142 459L141 458M273 458L274 459L273 458M143 459L144 460L143 459M271 459L272 460L271 459M145 460L146 461L145 460M270 460L271 461L270 460M147 461L148 462L147 461M268 461L269 462L268 461M149 462L150 463L149 462M266 462L267 463L266 462M150.667 463.333L151.333 463.667L150.667 463.333M264 463L265 464L264 463M152.667 464.333L153.333 464.667L152.667 464.333M262 464L263 465L262 464M154.667 465.333L155.333 465.667L154.667 465.333M260 465L261 466L260 465M156 466L157 467L156 466M258 466L259 467L258 466M158 467L159 468L158 467M256 467L257 468L256 467M160 468L161 469L160 468M254 468L255 469L254 468M161.667 469.333L162.333 469.667L161.667 469.333M252.667 469.333L253.333 469.667L252.667 469.333M163 470L164 471L163 470M250.667 470.333L251.333 470.667L250.667 470.333M165 471L166 472L165 471M248.667 471.333L249.333 471.667L248.667 471.333M167 472L168 473L167 472M246.667 472.333L247.333 472.667L246.667 472.333M169 473L170 474L169 473M244.667 473.333L245.333 473.667L244.667 473.333M171 474L172 475L171 474M243 474L244 475L243 474M172.667 475.333L173.333 475.667L172.667 475.333M241 475L242 476L241 475M174 476L175 477L174 476M239 476L240 477L239 476M176 477L177 478L176 477M237 477L238 478L237 477M178 478L179 479L178 478M235 478L236 479L235 478M180 479L181 480L180 479M233.667 479.333L234.333 479.667L233.667 479.333M182 480L183 481L182 480M231.667 480.333L232.333 480.667L231.667 480.333M183 481L184 482L183 481M229.667 481.333L230.333 481.667L229.667 481.333M185 482L186 483L185 482M228 482L229 483L228 482M187 483L188 484L187 483M226 483L227 484L226 483M189 484L190 485L189 484M224 484L225 485L224 484M191 485L192 486L191 485M222 485L223 486L222 485M193 486L193 487L196 487L193 486M219.667 486.333L220.333 486.667L219.667 486.333M206 487L207 488L206 487M218 487L219 488L218 487z"/>
</svg>
