<?xml version="1.0" standalone="yes"?>
<svg xmlns="http://www.w3.org/2000/svg" width="500" height="500">
<path style="fill:#010101; stroke:none;" d="M0 0L0 500L500 500L500 0L0 0z"/>
<path style="fill:#e6e9e3; stroke:none;" d="M62 127L64 126L57 167L56 167C50.9618 162.348 41.4058 175.729 39.8789 180C37.032 187.963 40.5208 195.766 40.8735 203.576C41.4516 216.381 27.6814 231.896 45 240L45 233L46 233C46 236.925 47.1186 241.78 44 241L45 252L44 252L44 250L43 250L44 261L43 261L43 257L42 257L43 291L54 292L54 293L47 295L43 292L44 300L58 310.667L116 323L116 322L110 319L110 318L150 328L150 329L145 329L145 330L209 343L209 344L206 344L206 345L234 354L263 355L282 360L304 366L310 365L310 366L306 366C309.293 372.586 313.037 370.293 318 373C321.162 374.725 322.45 379.929 326 382C329.701 384.159 334.798 381.95 339 383C352.902 386.475 371.174 384 386 384C396.742 384 410.766 386.687 417 376C417.79 374.645 416.88 371.269 417 371C417.411 370.076 421.275 369.208 422 368C423.078 366.204 421.879 363.086 422 362C422.52 357.322 424.528 347.887 426 342C430.934 322.266 434.065 301.74 439 282C442.042 269.834 437.937 256.252 441 244C444.126 231.496 446.171 210.685 443 198C441.314 191.256 440.678 183.713 439 177C438.148 173.591 439.853 169.536 437 167C432.417 162.926 425.811 163.453 420 162C410.908 159.727 401.092 158.273 392 156C387.508 154.877 375.102 155.591 376 152L353 149L292 138L265 132L259 133L259 132L261 132L261 131L253 132L253 131L256 131L256 130L234 122.3L189.001 120.744L150 114L150 113L152 113L152 112L139 112L139 111L141 110C125.284 102.623 112.11 106.657 96 104.242C87.7633 103.008 75.2994 99.3862 68.0401 105.329C61.6031 110.598 62 119.485 62 127z"/>
<path style="fill:#010101; stroke:none;" d="M72 104L64 126L65 126L72 104M103 105L103 106L139 111C129.328 106.658 113.604 105.219 103 105z"/>
<path style="fill:#ddb6d5; stroke:none;" d="M182 119L183 120L182 119M190 120L191 121L190 120z"/>
<path style="fill:#010101; stroke:none;" d="M209 123L209 124L253 131C241.579 125.511 221.682 123.545 209 123M137 127C131.967 166.822 130.095 206.375 122.915 246C120.606 258.742 111.264 280.049 118.649 292.721C121.148 297.01 128.669 296.8 133 297.611C147.013 300.237 160.954 303.305 175 305.75C217.422 313.134 259.749 321.688 302 330.001C310.358 331.645 319.951 332.308 327.961 335.147C336.823 338.289 343.93 342.649 354 341.424C366.94 339.85 382.2 345.742 395 347.919C400.144 348.794 407.081 351.354 411.397 347.03C414.695 343.726 413.79 336.27 414.09 332C414.908 320.324 416.47 308.696 417.039 297C419.161 253.332 427.098 209.707 428 166C366.288 158.194 304.57 149.601 243 140.729C208.572 135.768 171.774 127.023 137 127z"/>
<path style="fill:#8bb5db; stroke:none;" d="M138 128C133.723 151.038 134.116 174.766 131.83 198C130.225 214.312 126.45 230.817 123.753 247C121.733 259.124 112.603 280.336 119.419 291.772C122.236 296.497 131.159 296.238 136 297.2C151.314 300.243 166.683 302.987 182 306.001C238.61 317.139 295.289 328.003 352 338.611C366.011 341.232 379.956 344.305 394 346.75C398.63 347.556 405.517 350.209 409.683 346.987C413.152 344.304 412.906 337.942 413 334C413.234 324.146 414.13 313.789 415.285 304C420.6 258.957 425.054 212.321 427 167C368.714 156.141 308.792 150.449 250 142.718C213.432 137.91 174.875 128.102 138 128z"/>
<path style="fill:#010101; stroke:none;" d="M184 141L172 186L216 195C216.001 185.196 216.241 174.763 217.17 165C217.525 161.266 219.485 155.036 216.972 151.703C212.342 145.56 191.433 142.704 184 141z"/>
<path style="fill:#ddb6d5; stroke:none;" d="M185 142L173 185L215 194C215.006 184.79 215.459 175.201 216.09 166C216.349 162.212 218.173 157.048 216.397 153.419C214.455 149.451 200.122 144.974 197 148L185 142z"/>
<path style="fill:#010101; stroke:none;" d="M197 148L204 178L181 180L181 181L205 179L197 148z"/>
<path style="fill:#8bb5db; stroke:none;" d="M212 150L213 151L212 150M215 151L216 152L215 151z"/>
<path style="fill:#010101; stroke:none;" d="M237 152L237 153L240 153L237 152z"/>
<path style="fill:#6f6751; stroke:none;" d="M237 153L235 197L259 200L259 199L236 196C236.001 183.856 241.67 164.129 237 153z"/>
<path style="fill:#e6e9e3; stroke:none;" d="M238 153L236 196L275 202L280 161L238 153z"/>
<path style="fill:#6f6751; stroke:none;" d="M240 153L240 154L244 154L240 153z"/>
<path style="fill:#010101; stroke:none;" d="M244.667 153.333L245.333 153.667L244.667 153.333z"/>
<path style="fill:#6f6751; stroke:none;" d="M246 154L247 155L246 154z"/>
<path style="fill:#010101; stroke:none;" d="M247 154L247 155L251 155L247 154z"/>
<path style="fill:#6f6751; stroke:none;" d="M251 155L251 156L254 156L251 155z"/>
<path style="fill:#010101; stroke:none;" d="M254.667 155.333L255.333 155.667L254.667 155.333z"/>
<path style="fill:#6f6751; stroke:none;" d="M256 156L256 157L259 157L256 156z"/>
<path style="fill:#010101; stroke:none;" d="M259 156L259 157L262 157L259 156z"/>
<path style="fill:#ddb6d5; stroke:none;" d="M261 157L262 158L261 157z"/>
<path style="fill:#6f6751; stroke:none;" d="M262 157L263 158L262 157z"/>
<path style="fill:#010101; stroke:none;" d="M263 157L263 158L272 159L263 157z"/>
<path style="fill:#e6e9e3; stroke:none;" d="M357 157L358 158L357 157z"/>
<path style="fill:#ddb6d5; stroke:none;" d="M266 158L267 159L266 158M271 159L272 160L271 159z"/>
<path style="fill:#6f6751; stroke:none;" d="M272 159L272 160L275 160L272 159z"/>
<path style="fill:#010101; stroke:none;" d="M275 159L275 160C277.243 160.832 278.923 161.437 279.259 164.109C280.202 171.613 278.402 197.965 272 202L272 203L276 203L281 160L275 159z"/>
<path style="fill:#8bb5db; stroke:none;" d="M276.667 160.333L277.333 160.667L276.667 160.333z"/>
<path style="fill:#ddb6d5; stroke:none;" d="M236.333 161.667L236.667 162.333L236.333 161.667z"/>
<path style="fill:#010101; stroke:none;" d="M298 163L295 207L340 210L348 170L298 163z"/>
<path style="fill:#6f6751; stroke:none;" d="M259 164L259 165L262 166L262 167L259 167L259 168C270.355 168.624 267.078 179.444 264 187L265 187C270.354 177.442 269.089 168.721 259 164z"/>
<path style="fill:#8bb5db; stroke:none;" d="M279 164L280 165L279 164z"/>
<path style="fill:#e6e9e3; stroke:none;" d="M299 164L296 206L327 208.039L338.262 207.971L342.424 193L343 179L347 171L299 164z"/>
<path style="fill:#010101; stroke:none;" d="M55 167L46 233L47 233L52.4244 188L55 167z"/>
<path style="fill:#6f6751; stroke:none;" d="M251 168L251 169L254 169L251 168z"/>
<path style="fill:#010101; stroke:none;" d="M254 168L254 169L259 169L254 168z"/>
<path style="fill:#e6e9e3; stroke:none;" d="M245 173C247.291 175.351 250.157 175.579 252.61 177.599C255.439 179.927 256.318 183.862 260.028 185.238C267.399 187.974 268.602 174.777 266.397 170.434C263.4 164.533 248.461 169.855 245 173M337 168L338 169L337 168z"/>
<path style="fill:#010101; stroke:none;" d="M247 169L247 170L251 170L247 169M328 169C320.417 181.353 320.624 189.896 326 203L327 203L323.289 182L328 169z"/>
<path style="fill:#e6e9e3; stroke:none;" d="M344.667 169.333L345.333 169.667L344.667 169.333z"/>
<path style="fill:#010101; stroke:none;" d="M246.333 170.667L246.667 171.333L246.333 170.667M245 172L246 173L245 172z"/>
<path style="fill:#8bb5db; stroke:none;" d="M278 172L279 173L278 172z"/>
<path style="fill:#010101; stroke:none;" d="M367 172L357 210L400 218L407 179L367 172M244 173L245 174L244 173z"/>
<path style="fill:#ddb6d5; stroke:none;" d="M368 173L358 209L399 217L406 180L368 173z"/>
<path style="fill:#010101; stroke:none;" d="M245 174L246 175L245 174M246 175L247 176L246 175M247 176L247 177L253 177L247 176M98 177.529C93.4239 178.354 86.1148 179.744 82.9691 183.419C69.774 198.835 88.9857 219.29 106 215.61C126.994 211.068 122.38 173.137 98 177.529M253.333 177.667L253.667 178.333L253.333 177.667z"/>
<path style="fill:#e6e9e3; stroke:none;" d="M98 178.529C93.4793 179.344 86.7912 180.696 83.6489 184.278C70.6705 199.072 90.0895 218.077 106 214.61C125.688 210.319 121.276 174.336 98 178.529z"/>
<path style="fill:#010101; stroke:none;" d="M367 178L386 197L367 184L361 204L399 215L399 214L362 203L367 186L400 209C392.073 197.777 378.246 185.914 367 178M254.333 179.667L254.667 180.333L254.333 179.667z"/>
<path style="fill:#8bb5db; stroke:none;" d="M277 180L278 181L277 180z"/>
<path style="fill:#010101; stroke:none;" d="M342 180C334.664 185.027 332.871 196.03 340 202C335.894 194.436 335.191 186.352 343 181L342 180M255.333 181.667L255.667 182.333L255.333 181.667z"/>
<path style="fill:#ddb6d5; stroke:none;" d="M235.333 183.667L235.667 184.333L235.333 183.667z"/>
<path style="fill:#010101; stroke:none;" d="M256 183L256 185L258 185L256 183M312 183C309.007 188.752 309.289 193.94 316 196L312 183M102 185.808C92.6141 186.038 85.5082 204.791 98.0008 205.28C109.612 205.735 113.802 185.518 102 185.808M258.667 185.333L259.333 185.667L258.667 185.333z"/>
<path style="fill:#e6e9e3; stroke:none;" d="M101.996 186.812C93.097 187.141 87.3844 205.196 99.0008 204.254C108.367 203.494 112.312 186.43 101.996 186.812z"/>
<path style="fill:#010101; stroke:none;" d="M260 186L260 187L264 187L260 186z"/>
<path style="fill:#e6e9e3; stroke:none;" d="M311 186C311.05 190.208 311.266 192.71 315 195L311 186z"/>
<path style="fill:#8bb5db; stroke:none;" d="M276.333 188.667L276.667 189.333L276.333 188.667z"/>
<path style="fill:#ddb6d5; stroke:none;" d="M275 194L275 197L276 197L275 194M236 197L236 198L239 198L236 197z"/>
<path style="fill:#8bb5db; stroke:none;" d="M275 197L276 198L275 197z"/>
<path style="fill:#ddb6d5; stroke:none;" d="M386 197L389 200L386 197M244.667 198.333L245.333 198.667L244.667 198.333z"/>
<path style="fill:#010101; stroke:none;" d="M259 200L260 201L259 200z"/>
<path style="fill:#6f6751; stroke:none;" d="M260 200L260 201L266 201L260 200z"/>
<path style="fill:#010101; stroke:none;" d="M266 201L267 202L266 201z"/>
<path style="fill:#6f6751; stroke:none;" d="M267 201L267 202L272 202L267 201z"/>
<path style="fill:#ddb6d5; stroke:none;" d="M392 202L393 203L392 202z"/>
<path style="fill:#e6e9e3; stroke:none;" d="M300 207L300 208L303 208L300 207z"/>
<path style="fill:#010101; stroke:none;" d="M231 212L224 254L272 259L276 221L231 212z"/>
<path style="fill:#e6e9e3; stroke:none;" d="M232 213L225 253L271 258L273.925 232L273.933 222.738L263 219.4L232 213M422 217L422 220L423 220L422 217z"/>
<path style="fill:#010101; stroke:none;" d="M300 220L290 255L331 260L337 228L300 220z"/>
<path style="fill:#e6e9e3; stroke:none;" d="M301 221L291 254L330 259C331.282 254.046 336.053 240.685 332 237L332 236C335.545 235.24 335.379 232.284 336 229L301 221z"/>
<path style="fill:#010101; stroke:none;" d="M356 227L353 265L394 269L398 231L356 227z"/>
<path style="fill:#e6e9e3; stroke:none;" d="M421 227L421 232L422 232L421 227M357 228L354 264L393 268L397 232L357 228z"/>
<path style="fill:#010101; stroke:none;" d="M300 231C299.972 241.161 296.114 249.558 307 255L307 254C298.132 247.547 300.973 241.787 301 232L332 236C325.454 229.865 308.653 231.024 300 231M360 232C358.889 237.898 355.004 248.019 356.773 253.826C360.32 265.473 382.615 264.806 392 265C392.504 253.255 394.643 245.169 390 234C383.286 236.013 381.544 240.348 381 247L380 247L380 232L370 234C369.801 243.627 367.966 246.703 377 252L366 254L366 232L360 232z"/>
<path style="fill:#e6e9e3; stroke:none;" d="M357 255C368.204 261.976 377.808 263.434 391 264C391.828 253.51 394.566 244.584 389 235L379.272 251.436L365 255L365 233C357.664 234.274 357.793 248.76 357 255M379 251L379 233C367.26 235.472 367.848 247.778 379 251M420 239L420 244L421 244L420 239z"/>
<path style="fill:#8bb5db; stroke:none;" d="M332 246L333 247L332 246z"/>
<path style="fill:#e6e9e3; stroke:none;" d="M419 252L419 256L420 256L419 252M418 264L418 268L419 268L418 264z"/>
<path style="fill:#010101; stroke:none;" d="M224 266L224 267L227 267L224 266z"/>
<path style="fill:#6f6751; stroke:none;" d="M224 267L214 307L218 307L218 306L215 306C218.534 296.633 226.221 276.722 224 267z"/>
<path style="fill:#e6e9e3; stroke:none;" d="M225 267L215 306L256 313L265 275L225 267z"/>
<path style="fill:#6f6751; stroke:none;" d="M227 267L227 268L230 268L227 267z"/>
<path style="fill:#010101; stroke:none;" d="M230.667 267.333L231.333 267.667L230.667 267.333z"/>
<path style="fill:#e6e9e3; stroke:none;" d="M223 268L224 269L223 268z"/>
<path style="fill:#6f6751; stroke:none;" d="M232 268L232 269L236 269L232 268z"/>
<path style="fill:#010101; stroke:none;" d="M236 268L237 269L236 268z"/>
<path style="fill:#6f6751; stroke:none;" d="M237 269L237 270L241 270L237 269z"/>
<path style="fill:#010101; stroke:none;" d="M241 269L242 270L241 269z"/>
<path style="fill:#6f6751; stroke:none;" d="M242 270L242 271L245 271L242 270z"/>
<path style="fill:#010101; stroke:none;" d="M245 270L245 271L248 271L245 270M283 270L283 271L286 271L283 270M248 271L248 272L253 272L248 271z"/>
<path style="fill:#6f6751; stroke:none;" d="M283 271C280.466 280.424 279.146 290.392 277.389 300C276.751 303.49 274.733 308.081 279 309L279 308C273.813 297.418 285.696 282.268 283 271z"/>
<path style="fill:#e6e9e3; stroke:none;" d="M284 271L277 308L285 308C285.539 311.301 301.588 314.621 304 312L315 316L323 278L284 271z"/>
<path style="fill:#6f6751; stroke:none;" d="M286 271L286 272L289 272L286 271z"/>
<path style="fill:#010101; stroke:none;" d="M289 271L289 272L292 272L289 271z"/>
<path style="fill:#e6e9e3; stroke:none;" d="M222 272L223 273L222 272z"/>
<path style="fill:#6f6751; stroke:none;" d="M253 272L254 273L253 272z"/>
<path style="fill:#010101; stroke:none;" d="M254 272L254 273L258 273L254 272z"/>
<path style="fill:#6f6751; stroke:none;" d="M292.667 272.333L293.333 272.667L292.667 272.333z"/>
<path style="fill:#010101; stroke:none;" d="M294 272L294 273L298 273L294 272z"/>
<path style="fill:#6f6751; stroke:none;" d="M258.667 273.333L259.333 273.667L258.667 273.333z"/>
<path style="fill:#010101; stroke:none;" d="M260 273L260 274L263 274L260 273z"/>
<path style="fill:#6f6751; stroke:none;" d="M298 273L298 274L302 274L298 273z"/>
<path style="fill:#010101; stroke:none;" d="M302 273L303 274L302 273z"/>
<path style="fill:#6f6751; stroke:none;" d="M263 274L264 275L263 274z"/>
<path style="fill:#010101; stroke:none;" d="M264 274L265 277L266 277L266 274L264 274z"/>
<path style="fill:#6f6751; stroke:none;" d="M303 274L303 275L315 276L303 274z"/>
<path style="fill:#ddb6d5; stroke:none;" d="M309 274L310 275L309 274z"/>
<path style="fill:#e6e9e3; stroke:none;" d="M221 276L222 277L221 276z"/>
<path style="fill:#6f6751; stroke:none;" d="M315 276L315 277L319 277L315 276z"/>
<path style="fill:#010101; stroke:none;" d="M319.667 276.333L320.333 276.667L319.667 276.333M245 277L248 280L248 281L224 291L224 292C230.154 296.995 251.515 312.114 255 296L248 294C252.421 286.422 252.57 282.355 245 277M264 277L264 281L265 281L264 277z"/>
<path style="fill:#6f6751; stroke:none;" d="M321.667 277.333L322.333 277.667L321.667 277.333z"/>
<path style="fill:#010101; stroke:none;" d="M323 277L323 280L324 280L323 277z"/>
<path style="fill:#e6e9e3; stroke:none;" d="M417 277L417 280L418 280L417 277z"/>
<path style="fill:#ddb6d5; stroke:none;" d="M281 278L282 279L281 278z"/>
<path style="fill:#010101; stroke:none;" d="M302 279C298.618 281.248 294.928 282.653 295 287L291 287L291 288L303 288L302 279z"/>
<path style="fill:#e6e9e3; stroke:none;" d="M220 280L221 281L220 280z"/>
<path style="fill:#010101; stroke:none;" d="M322 280L322 285L323 285L322 280z"/>
<path style="fill:#e6e9e3; stroke:none;" d="M248 281C239.985 288.854 230.984 282.553 225 292C234.598 299.234 241.919 304.847 254 299L254 297L247 295C249.14 289.859 252.952 285.394 248 281z"/>
<path style="fill:#010101; stroke:none;" d="M263 281L263 285L264 285L263 281z"/>
<path style="fill:#e6e9e3; stroke:none;" d="M295 284L295 286L302 287L302 281L295 284z"/>
<path style="fill:#010101; stroke:none;" d="M335 319L377 330L386 287L357 284.025L346.702 284.042L342.576 294L335 319z"/>
<path style="fill:#e6e9e3; stroke:none;" d="M219 284L220 285L219 284M336 318L376 329L385 288L357 285.025L347.51 285.067L343.28 295L336 318z"/>
<path style="fill:#010101; stroke:none;" d="M262 285L262 290L263 290L262 285M321 285L321 290L322 290L321 285z"/>
<path style="fill:#e6e9e3; stroke:none;" d="M218 288L219 289L218 288z"/>
<path style="fill:#010101; stroke:none;" d="M261 290L261 294L262 294L261 290M320 290L320 295L321 295L320 290z"/>
<path style="fill:#e6e9e3; stroke:none;" d="M416.333 290.667L416.667 291.333L416.333 290.667M217 292L218 293L217 292z"/>
<path style="fill:#010101; stroke:none;" d="M54 293L54 294C82.6167 296.277 111.85 305.371 140 311C198.682 322.735 257.32 334.661 316 346.4C331.618 349.524 347.609 352.051 363 356.155C382.653 361.395 401.438 368.242 422 364L411 364.624L385 361.714L361 354.425L259 333.789L124 306.6L54 293M260 294L260 298L261 298L260 294M285 298L285 299C298.881 296.135 302.223 297.487 315 303C305.486 293.18 297.017 294.615 285 298M319 295L319 299L320 299L319 295z"/>
<path style="fill:#e6e9e3; stroke:none;" d="M216 296L217 297L216 296z"/>
<path style="fill:#010101; stroke:none;" d="M259 298L259 303L260 303L259 298M318 299L318 304L319 304L318 299z"/>
<path style="fill:#e6e9e3; stroke:none;" d="M415.333 302.667L415.667 303.333L415.333 302.667z"/>
<path style="fill:#010101; stroke:none;" d="M258 303L258 307L259 307L258 303M317 304L317 309L318 309L317 304M285 307L285 308C291.513 306.331 299.08 305.454 303 312C304.149 303.74 289.668 305.312 285 307M218 307L219 308L218 307z"/>
<path style="fill:#6f6751; stroke:none;" d="M219 307L219 308L224 308L219 307z"/>
<path style="fill:#010101; stroke:none;" d="M257 307L257 311L258 311L257 307z"/>
<path style="fill:#6f6751; stroke:none;" d="M224 308L224 309L230 309L224 308z"/>
<path style="fill:#010101; stroke:none;" d="M282 310L285 308L282 310z"/>
<path style="fill:#6f6751; stroke:none;" d="M230 309L230 310L236 310L230 309z"/>
<path style="fill:#010101; stroke:none;" d="M279 309L280 310L279 309z"/>
<path style="fill:#6f6751; stroke:none;" d="M280.667 309.333L281.333 309.667L280.667 309.333z"/>
<path style="fill:#010101; stroke:none;" d="M316 309L316 314L317 314L316 309z"/>
<path style="fill:#6f6751; stroke:none;" d="M236 310L236 311L242 311L236 310z"/>
<path style="fill:#010101; stroke:none;" d="M284 310L284 311L289 311L284 310z"/>
<path style="fill:#6f6751; stroke:none;" d="M242 311L242 312L248 312L242 311z"/>
<path style="fill:#010101; stroke:none;" d="M256 311L256 314L257 314L256 311M289 311L289 312L294 312L289 311z"/>
<path style="fill:#6f6751; stroke:none;" d="M248 312L248 313L256 314L248 312z"/>
<path style="fill:#010101; stroke:none;" d="M294 312L294 313L298 313L294 312M304 312L303 315L308 315L308 314L304 312z"/>
<path style="fill:#ddb6d5; stroke:none;" d="M253 313L254 314L253 313z"/>
<path style="fill:#010101; stroke:none;" d="M298 313L298 314L303 314L298 313M315 314L313 316L313 317C315.251 316.527 316.118 316.14 315 314M308 315L308 316L311 316L308 315z"/>
<path style="fill:#6f6751; stroke:none;" d="M311.667 315.333L312.333 315.667L311.667 315.333z"/>
<path style="fill:#e6e9e3; stroke:none;" d="M414 315L415 316L414 315z"/>
<path style="fill:#010101; stroke:none;" d="M108.667 317.333L109.333 317.667L108.667 317.333z"/>
<path style="fill:#e6e9e3; stroke:none;" d="M336 319L337 320L336 319M340 320L341 321L340 320M344 321L345 322L344 321M348 322L349 323L348 322M117 323L117 324L120 324L117 323M413 327L414 328L413 327z"/>
<path style="fill:#010101; stroke:none;" d="M150.667 329.333L151.333 329.667L150.667 329.333z"/>
<path style="fill:#ddb6d5; stroke:none;" d="M341 340L342 341L341 340z"/>
<path style="fill:#e6e9e3; stroke:none;" d="M362 340L363 341L362 340z"/>
<path style="fill:#010101; stroke:none;" d="M209 344L209 345L259 355C246.591 348.391 223.053 344.613 209 344M278 350L277 352L279 352L278 350M310 366L310 367C330.153 369.603 350.131 375.564 370 379.789C379.917 381.898 391.849 385.225 402 382.57C407.574 381.112 412.182 376 417 373L403 380.86L387 381.91L310 366z"/>
</svg>
