<?xml version="1.0" standalone="yes"?>
<svg xmlns="http://www.w3.org/2000/svg" width="500" height="500">
<path style="fill:#010101; stroke:none;" d="M0 0L0 500L500 500L500 0L0 0z"/>
<path style="fill:#f7f381; stroke:none;" d="M313 12L288 57C260.894 41.164 230.131 18.4318 198 17.213C186.608 16.7808 168.673 27.3524 159 33.0116C139.155 44.6224 119.718 56.9698 100 68.8002C83.349 78.7906 67.7797 86.4567 59.4167 105C55.5179 113.645 57.705 124.808 56.8302 134C54.4552 158.957 53.0028 184.925 53 210L154 210L156 96L167 104L189 115.4L237 143L222 166C222.502 168.51 221.579 171.645 219 171C219.499 173.496 217.653 178.663 215 178C215.502 180.51 214.579 183.645 212 183L210 190C239.281 181.992 268.063 165.751 296 153.85C304.735 150.129 322.128 146.566 328.382 139.351C332.724 134.341 327.106 115.329 326.282 109C323.376 86.6976 320.559 64.3496 318.05 42C317.096 33.4983 317.837 19.0792 313 12z"/>
<path style="fill:#ffffff; stroke:none;" d="M150 38L151 39L150 38z"/>
<path style="fill:#f7f381; stroke:none;" d="M392 100L341 187L355 197C357.649 196.47 358.607 196.572 358 199C360.649 198.47 361.607 198.572 361 201L364 200L363 202C365.649 201.47 366.607 201.572 366 204C368.649 203.47 369.607 203.572 369 206L372 205L371 207C373.649 206.47 374.607 206.572 374 209C376.557 208.489 382.613 211.548 382 214C384.557 213.489 390.613 216.548 390 219L417 234L425 241C427.649 240.47 428.607 240.572 428 243C430.51 242.498 433.645 243.421 433 246L438 247L438 248C409.63 259.812 381.549 277.504 355 293C348.776 278.05 340.318 258.453 330 246L326 274L316 342L313 363L311 374L329 382L370 401L388 410C391.246 409.459 397.623 411.51 397 414C400.246 413.459 406.623 415.51 406 418L429 426L404 380C415.527 375.033 426.186 367.363 437 361.011C454.387 350.798 472.181 342.737 483.136 325C489.931 313.998 490 292.67 490 280L490 214C490 193.41 491.33 177.043 479.648 159.093C473.939 150.321 459.746 144.052 451 138.576C431.426 126.319 412.871 109.873 392 100z"/>
<path style="fill:#ffffff; stroke:none;" d="M484 168L485 169L484 168z"/>
<path style="fill:#f7f381; stroke:none;" d="M107 236C74.0889 262.118 40.6459 291.802 5 314L5 315L58 314C58 344.87 54.0267 383.043 68.3241 410.961C74.2287 422.49 92.9378 432.312 104 438.309C125.042 449.716 145.861 461.552 167 472.78C183.223 481.398 196.837 489.775 216 487.895C225.415 486.971 234.725 479.414 243 475.248C265.043 464.148 286.194 450.495 309 441L259 353C224.491 367.371 190.298 389.149 158 408L158 314L212 315L212 314L107 236z"/>
<path style="fill:#ffffff; stroke:none;" d="M158 274L159 275L158 274M159 275L160 276L159 275M163 278L164 279L163 278M167 281L168 282L167 281M265 365L266 366L265 365M266 367L267 368L266 367M269 372L270 373L269 372M270 374L271 375L270 374M273 379L274 380L273 379M274 381L275 382L274 381M276 384L277 385L276 384M277 386L278 387L277 386M278 388L279 389L278 388M280 391L281 392L280 391M281 393L282 394L281 393M282 395L283 396L282 395M283 396L284 397L283 396M284 398L285 399L284 398M285 400L286 401L285 400M286 402L287 403L286 402M287 403L288 404L287 403M288 405L289 406L288 405M289 407L290 408L289 407M291 410L292 411L291 410M292 412L293 413L292 412M294 415L295 416L294 415M295 417L296 418L295 417M298 422L299 423L298 422M299 424L300 425L299 424M302 429L303 430L302 429M305 434L306 435L305 434M289 450L290 451L289 450M287 451L288 452L287 451M285 452L286 453L285 452M283 453L284 454L283 453z"/>
</svg>
